<svg xmlns="http://www.w3.org/2000/svg" xmlns:xlink="http://www.w3.org/1999/xlink" width="500" zoomAndPan="magnify" viewBox="0 0 375 374.999991" height="500" preserveAspectRatio="xMidYMid meet" version="1.0"><defs><g/><clipPath id="b6e9d64f9b"><path d="M 20.484375 4 L 362.484375 4 L 362.484375 357 L 20.484375 357 Z M 20.484375 4 " clip-rule="nonzero"/></clipPath></defs><g clip-path="url(#b6e9d64f9b)"><path fill="#3d3b3a" d="M 148.390625 9.570312 C 151.15625 8.878906 153.941406 8.25 156.738281 7.691406 C 159.539062 7.132812 162.347656 6.640625 165.171875 6.21875 C 167.992188 5.796875 170.824219 5.441406 173.664062 5.15625 C 176.503906 4.871094 179.347656 4.65625 182.199219 4.511719 C 185.050781 4.363281 187.902344 4.285156 190.753906 4.277344 C 193.609375 4.269531 196.460938 4.332031 199.3125 4.460938 C 202.164062 4.589844 205.007812 4.792969 207.851562 5.058594 C 210.691406 5.328125 213.523438 5.667969 216.351562 6.074219 C 219.175781 6.480469 221.988281 6.953125 224.789062 7.496094 C 227.589844 8.039062 230.378906 8.652344 233.152344 9.328125 C 235.921875 10.007812 238.675781 10.753906 241.414062 11.566406 C 244.148438 12.378906 246.863281 13.257812 249.554688 14.199219 C 252.25 15.144531 254.917969 16.152344 257.5625 17.226562 C 260.207031 18.300781 262.824219 19.4375 265.414062 20.640625 C 268 21.839844 270.558594 23.105469 273.085938 24.429688 C 275.613281 25.753906 278.109375 27.140625 280.570312 28.585938 C 283.027344 30.035156 285.453125 31.539062 287.839844 33.101562 C 290.226562 34.667969 292.574219 36.289062 294.882812 37.96875 C 297.191406 39.644531 299.457031 41.378906 301.679688 43.167969 C 303.90625 44.957031 306.085938 46.796875 308.21875 48.691406 C 310.351562 50.585938 312.441406 52.53125 314.480469 54.527344 C 316.519531 56.523438 318.511719 58.566406 320.453125 60.660156 C 322.394531 62.75 324.28125 64.890625 326.117188 67.074219 C 327.953125 69.257812 329.738281 71.484375 331.464844 73.757812 C 333.195312 76.027344 334.867188 78.339844 336.484375 80.691406 C 338.101562 83.042969 339.65625 85.433594 341.160156 87.863281 C 342.660156 90.289062 344.097656 92.753906 345.480469 95.25 C 346.859375 97.746094 348.179688 100.277344 349.4375 102.839844 C 350.695312 105.402344 351.886719 107.992188 353.019531 110.613281 C 354.152344 113.234375 355.21875 115.878906 356.222656 118.550781 C 357.226562 121.222656 358.164062 123.917969 359.035156 126.632812 C 359.90625 129.351562 360.710938 132.089844 361.453125 134.84375 C 361.726562 135.863281 361.992188 136.898438 362.253906 137.957031 L 359.558594 138.894531 C 359.285156 137.789062 359.003906 136.683594 358.707031 135.578125 C 357.972656 132.84375 357.175781 130.132812 356.3125 127.4375 C 355.445312 124.746094 354.515625 122.074219 353.519531 119.429688 C 352.523438 116.78125 351.464844 114.160156 350.339844 111.5625 C 349.21875 108.96875 348.03125 106.398438 346.78125 103.863281 C 345.53125 101.324219 344.222656 98.820312 342.847656 96.347656 C 341.476562 93.871094 340.042969 91.433594 338.554688 89.03125 C 337.0625 86.628906 335.511719 84.261719 333.902344 81.933594 C 332.296875 79.605469 330.632812 77.320312 328.914062 75.074219 C 327.195312 72.828125 325.421875 70.625 323.59375 68.464844 C 321.765625 66.308594 319.886719 64.195312 317.957031 62.125 C 316.027344 60.058594 314.046875 58.039062 312.015625 56.070312 C 309.988281 54.101562 307.910156 52.179688 305.785156 50.3125 C 303.664062 48.445312 301.496094 46.628906 299.28125 44.867188 C 297.070312 43.105469 294.816406 41.394531 292.519531 39.746094 C 290.222656 38.09375 287.886719 36.496094 285.515625 34.960938 C 283.140625 33.421875 280.730469 31.945312 278.28125 30.523438 C 275.835938 29.105469 273.355469 27.746094 270.84375 26.445312 C 268.332031 25.148438 265.789062 23.914062 263.214844 22.738281 C 260.640625 21.566406 258.039062 20.457031 255.410156 19.410156 C 252.78125 18.363281 250.132812 17.382812 247.457031 16.464844 C 244.777344 15.546875 242.082031 14.699219 239.363281 13.914062 C 236.648438 13.128906 233.910156 12.410156 231.160156 11.761719 C 228.40625 11.109375 225.640625 10.527344 222.859375 10.011719 C 220.078125 9.496094 217.285156 9.050781 214.480469 8.671875 C 211.675781 8.292969 208.867188 7.984375 206.046875 7.742188 C 203.230469 7.503906 200.40625 7.332031 197.582031 7.230469 C 194.753906 7.125 191.925781 7.09375 189.097656 7.128906 C 186.269531 7.164062 183.445312 7.269531 180.621094 7.445312 C 177.796875 7.621094 174.980469 7.863281 172.167969 8.175781 C 169.359375 8.488281 166.554688 8.867188 163.761719 9.316406 C 160.96875 9.765625 158.191406 10.285156 155.421875 10.871094 C 152.65625 11.457031 149.902344 12.109375 147.167969 12.828125 C 147.597656 11.753906 148.007812 10.679688 148.390625 9.578125 Z M 23.175781 222.582031 C 23.40625 223.488281 23.632812 224.390625 23.878906 225.296875 C 24.613281 228.035156 25.414062 230.753906 26.28125 233.457031 C 27.148438 236.15625 28.082031 238.832031 29.082031 241.484375 C 30.078125 244.140625 31.144531 246.769531 32.269531 249.371094 C 33.398438 251.972656 34.589844 254.542969 35.84375 257.085938 C 37.097656 259.628906 38.414062 262.140625 39.789062 264.621094 C 41.167969 267.097656 42.605469 269.542969 44.101562 271.949219 C 45.601562 274.359375 47.15625 276.730469 48.769531 279.0625 C 50.382812 281.394531 52.050781 283.683594 53.777344 285.933594 C 55.503906 288.183594 57.285156 290.390625 59.117188 292.550781 C 60.953125 294.714844 62.839844 296.832031 64.777344 298.902344 C 66.714844 300.972656 68.703125 302.992188 70.742188 304.964844 C 72.777344 306.9375 74.863281 308.859375 76.996094 310.730469 C 79.125 312.597656 81.304688 314.414062 83.523438 316.179688 C 85.746094 317.941406 88.007812 319.648438 90.3125 321.300781 C 92.617188 322.953125 94.960938 324.550781 97.34375 326.085938 C 99.726562 327.625 102.144531 329.101562 104.601562 330.519531 C 107.054688 331.9375 109.546875 333.296875 112.066406 334.589844 C 114.589844 335.886719 117.140625 337.121094 119.726562 338.292969 C 122.308594 339.464844 124.917969 340.570312 127.554688 341.613281 C 130.191406 342.65625 132.851562 343.632812 135.535156 344.546875 C 138.222656 345.457031 140.929688 346.304688 143.652344 347.085938 C 146.378906 347.863281 149.125 348.574219 151.886719 349.21875 C 154.648438 349.867188 157.421875 350.441406 160.214844 350.949219 C 163.003906 351.460938 165.804688 351.898438 168.613281 352.269531 C 171.425781 352.640625 174.246094 352.945312 177.070312 353.175781 C 179.898438 353.410156 182.726562 353.574219 185.5625 353.667969 C 188.394531 353.761719 191.230469 353.785156 194.066406 353.738281 C 196.902344 353.695312 199.734375 353.578125 202.5625 353.394531 C 205.394531 353.210938 208.214844 352.957031 211.035156 352.632812 C 213.851562 352.3125 216.660156 351.921875 219.457031 351.460938 C 222.253906 351 225.039062 350.46875 227.8125 349.871094 C 230.585938 349.273438 233.339844 348.609375 236.078125 347.878906 C 235.636719 348.953125 235.210938 350.035156 234.8125 351.132812 C 232.042969 351.839844 229.253906 352.480469 226.449219 353.050781 C 223.648438 353.621094 220.832031 354.121094 218.003906 354.554688 C 215.175781 354.988281 212.339844 355.351562 209.496094 355.644531 C 206.652344 355.941406 203.800781 356.167969 200.945312 356.324219 C 198.085938 356.480469 195.230469 356.566406 192.367188 356.582031 C 189.507812 356.601562 186.648438 356.546875 183.792969 356.425781 C 180.933594 356.304688 178.082031 356.109375 175.230469 355.851562 C 172.382812 355.589844 169.542969 355.257812 166.710938 354.859375 C 163.878906 354.460938 161.054688 353.992188 158.246094 353.453125 C 155.4375 352.917969 152.640625 352.3125 149.863281 351.640625 C 147.082031 350.964844 144.320312 350.226562 141.574219 349.417969 C 138.832031 348.609375 136.109375 347.738281 133.40625 346.796875 C 130.707031 345.855469 128.027344 344.851562 125.375 343.78125 C 122.722656 342.710938 120.097656 341.574219 117.5 340.378906 C 114.902344 339.179688 112.335938 337.917969 109.800781 336.59375 C 107.265625 335.269531 104.761719 333.886719 102.292969 332.441406 C 99.824219 330.996094 97.394531 329.492188 95 327.929688 C 92.601562 326.363281 90.246094 324.742188 87.929688 323.066406 C 85.613281 321.386719 83.339844 319.652344 81.109375 317.863281 C 78.878906 316.074219 76.691406 314.230469 74.546875 312.335938 C 72.40625 310.441406 70.3125 308.492188 68.265625 306.496094 C 66.214844 304.496094 64.21875 302.453125 62.269531 300.355469 C 60.324219 298.261719 58.429688 296.121094 56.585938 293.933594 C 54.742188 291.746094 52.953125 289.515625 51.21875 287.242188 C 49.484375 284.964844 47.804688 282.652344 46.183594 280.292969 C 44.5625 277.9375 42.996094 275.542969 41.492188 273.113281 C 39.984375 270.679688 38.539062 268.210938 37.15625 265.710938 C 35.769531 263.207031 34.445312 260.671875 33.183594 258.105469 C 31.921875 255.539062 30.726562 252.941406 29.589844 250.316406 C 28.453125 247.691406 27.382812 245.039062 26.378906 242.359375 C 25.371094 239.683594 24.429688 236.980469 23.554688 234.257812 C 22.679688 231.535156 21.875 228.792969 21.132812 226.027344 C 20.910156 225.199219 20.699219 224.359375 20.484375 223.527344 Z M 23.175781 222.582031 " fill-opacity="1" fill-rule="evenodd"/></g><g fill="#000000" fill-opacity="1"><g transform="translate(56.357431, 171.874836)"><g><path d="M 26.78125 -24.046875 L 26.78125 0 L 22.21875 0 L 22.21875 -11.015625 L 14.6875 -0.3125 L 14.625 -0.3125 L 7.375 -10.328125 L 7.375 0 L 2.984375 0 L 2.984375 -24.046875 L 3.015625 -24.046875 L 14.71875 -7.4375 L 26.71875 -24.046875 Z M 26.78125 -24.046875 "/></g></g></g><g fill="#000000" fill-opacity="1"><g transform="translate(111.210417, 171.874836)"><g><path d="M 14.40625 -4.515625 L 6.75 -4.515625 L 4.859375 0 L 0.375 0 L 10.796875 -24.015625 L 11.046875 -24.015625 L 21.46875 0 L 16.203125 0 Z M 12.90625 -8.34375 L 10.671875 -13.96875 L 8.34375 -8.34375 Z M 12.90625 -8.34375 "/></g></g></g><g fill="#000000" fill-opacity="1"><g transform="translate(158.157585, 171.874836)"><g><path d="M 15.4375 0 L 10.578125 -7.34375 L 7.53125 -7.34375 L 7.53125 0 L 2.984375 0 L 2.984375 -23.109375 L 9.984375 -23.109375 C 12.847656 -23.109375 15.066406 -22.410156 16.640625 -21.015625 C 18.222656 -19.617188 19.015625 -17.71875 19.015625 -15.3125 C 19.015625 -13.894531 18.71875 -12.5625 18.125 -11.3125 C 17.53125 -10.070312 16.613281 -9.09375 15.375 -8.375 L 20.75 0 Z M 7.53125 -11.734375 L 10.765625 -11.734375 C 12.003906 -11.734375 12.90625 -12.09375 13.46875 -12.8125 C 14.03125 -13.539062 14.3125 -14.320312 14.3125 -15.15625 C 14.3125 -16 14.070312 -16.800781 13.59375 -17.5625 C 13.113281 -18.320312 12.179688 -18.703125 10.796875 -18.703125 L 7.53125 -18.703125 Z M 7.53125 -11.734375 "/></g></g></g><g fill="#000000" fill-opacity="1"><g transform="translate(204.791017, 171.874836)"><g><path d="M 7.53125 -23.109375 L 7.53125 0 L 2.984375 0 L 2.984375 -23.109375 Z M 7.53125 -23.109375 "/></g></g></g><g fill="#000000" fill-opacity="1"><g transform="translate(240.412774, 171.874836)"><g><path d="M 23.796875 -23.109375 L 23.796875 0.9375 L 23.671875 0.9375 L 7.5 -13.65625 L 7.59375 0 L 2.984375 0 L 2.984375 -24.015625 L 3.171875 -24.015625 L 19.3125 -9.203125 L 19.21875 -23.109375 Z M 23.796875 -23.109375 "/></g></g></g><g fill="#000000" fill-opacity="1"><g transform="translate(292.285404, 171.874836)"><g><path d="M 14.40625 -4.515625 L 6.75 -4.515625 L 4.859375 0 L 0.375 0 L 10.796875 -24.015625 L 11.046875 -24.015625 L 21.46875 0 L 16.203125 0 Z M 12.90625 -8.34375 L 10.671875 -13.96875 L 8.34375 -8.34375 Z M 12.90625 -8.34375 "/></g></g></g><g fill="#000000" fill-opacity="1"><g transform="translate(57.944361, 215.402052)"><g><path d="M 14.875 -12.171875 C 16.09375 -11.609375 17.039062 -10.867188 17.71875 -9.953125 C 18.394531 -9.046875 18.734375 -8 18.734375 -6.8125 C 18.734375 -4.46875 17.960938 -2.742188 16.421875 -1.640625 C 14.890625 -0.546875 12.972656 0 10.671875 0 L 2.984375 0 L 2.984375 -23.109375 L 9.765625 -23.109375 C 12.210938 -23.109375 14.132812 -22.609375 15.53125 -21.609375 C 16.9375 -20.617188 17.640625 -19.179688 17.640625 -17.296875 C 17.640625 -16.140625 17.398438 -15.128906 16.921875 -14.265625 C 16.441406 -13.398438 15.757812 -12.703125 14.875 -12.171875 Z M 7.53125 -13.65625 L 10.296875 -13.65625 C 11.128906 -13.65625 11.773438 -13.910156 12.234375 -14.421875 C 12.703125 -14.929688 12.9375 -15.566406 12.9375 -16.328125 C 12.9375 -17.097656 12.671875 -17.6875 12.140625 -18.09375 C 11.617188 -18.5 10.898438 -18.703125 9.984375 -18.703125 L 7.53125 -18.703125 Z M 10.453125 -4.234375 C 11.515625 -4.234375 12.375 -4.445312 13.03125 -4.875 C 13.695312 -5.3125 14.03125 -5.957031 14.03125 -6.8125 C 14.03125 -8.445312 12.734375 -9.265625 10.140625 -9.265625 L 7.53125 -9.265625 L 7.53125 -4.234375 Z M 10.453125 -4.234375 "/></g></g></g><g fill="#000000" fill-opacity="1"><g transform="translate(103.354276, 215.402052)"><g><path d="M 18.734375 -23.109375 L 18.734375 -18.703125 L 7.53125 -18.703125 L 7.53125 -13.78125 L 17.453125 -13.78125 L 17.453125 -9.390625 L 7.53125 -9.390625 L 7.53125 -4.390625 L 19.1875 -4.390625 L 19.1875 0 L 2.984375 0 L 2.984375 -23.109375 Z M 18.734375 -23.109375 "/></g></g></g><g fill="#000000" fill-opacity="1"><g transform="translate(149.360261, 215.402052)"><g><path d="M 15.4375 0 L 10.578125 -7.34375 L 7.53125 -7.34375 L 7.53125 0 L 2.984375 0 L 2.984375 -23.109375 L 9.984375 -23.109375 C 12.847656 -23.109375 15.066406 -22.410156 16.640625 -21.015625 C 18.222656 -19.617188 19.015625 -17.71875 19.015625 -15.3125 C 19.015625 -13.894531 18.71875 -12.5625 18.125 -11.3125 C 17.53125 -10.070312 16.613281 -9.09375 15.375 -8.375 L 20.75 0 Z M 7.53125 -11.734375 L 10.765625 -11.734375 C 12.003906 -11.734375 12.90625 -12.09375 13.46875 -12.8125 C 14.03125 -13.539062 14.3125 -14.320312 14.3125 -15.15625 C 14.3125 -16 14.070312 -16.800781 13.59375 -17.5625 C 13.113281 -18.320312 12.179688 -18.703125 10.796875 -18.703125 L 7.53125 -18.703125 Z M 7.53125 -11.734375 "/></g></g></g><g fill="#000000" fill-opacity="1"><g transform="translate(195.993702, 215.402052)"><g><path d="M 21.71875 -2.328125 C 21.363281 -1.953125 20.726562 -1.554688 19.8125 -1.140625 C 18.90625 -0.734375 17.898438 -0.398438 16.796875 -0.140625 C 15.703125 0.117188 14.707031 0.25 13.8125 0.25 C 11.363281 0.25 9.210938 -0.222656 7.359375 -1.171875 C 5.503906 -2.128906 4.070312 -3.445312 3.0625 -5.125 C 2.0625 -6.8125 1.5625 -8.734375 1.5625 -10.890625 C 1.5625 -13.585938 2.09375 -15.875 3.15625 -17.75 C 4.226562 -19.625 5.664062 -21.023438 7.46875 -21.953125 C 9.269531 -22.890625 11.257812 -23.359375 13.4375 -23.359375 C 14.832031 -23.359375 16.148438 -23.195312 17.390625 -22.875 C 18.628906 -22.5625 19.71875 -22.15625 20.65625 -21.65625 L 19.1875 -17.421875 C 18.570312 -17.753906 17.734375 -18.0625 16.671875 -18.34375 C 15.617188 -18.625 14.738281 -18.765625 14.03125 -18.765625 C 11.519531 -18.765625 9.597656 -18.132812 8.265625 -16.875 C 6.941406 -15.625 6.28125 -13.765625 6.28125 -11.296875 C 6.28125 -9.878906 6.601562 -8.640625 7.25 -7.578125 C 7.894531 -6.523438 8.796875 -5.710938 9.953125 -5.140625 C 11.117188 -4.578125 12.445312 -4.296875 13.9375 -4.296875 C 15.363281 -4.296875 16.421875 -4.492188 17.109375 -4.890625 L 17.109375 -7.6875 L 13.125 -7.6875 L 13.125 -12.078125 L 21.71875 -12.078125 Z M 21.71875 -2.328125 "/></g></g></g><g fill="#000000" fill-opacity="1"><g transform="translate(245.011437, 215.402052)"><g><path d="M 18.734375 -23.109375 L 18.734375 -18.703125 L 7.53125 -18.703125 L 7.53125 -13.78125 L 17.453125 -13.78125 L 17.453125 -9.390625 L 7.53125 -9.390625 L 7.53125 -4.390625 L 19.1875 -4.390625 L 19.1875 0 L 2.984375 0 L 2.984375 -23.109375 Z M 18.734375 -23.109375 "/></g></g></g><g fill="#000000" fill-opacity="1"><g transform="translate(291.017413, 215.402052)"><g><path d="M 15.4375 0 L 10.578125 -7.34375 L 7.53125 -7.34375 L 7.53125 0 L 2.984375 0 L 2.984375 -23.109375 L 9.984375 -23.109375 C 12.847656 -23.109375 15.066406 -22.410156 16.640625 -21.015625 C 18.222656 -19.617188 19.015625 -17.71875 19.015625 -15.3125 C 19.015625 -13.894531 18.71875 -12.5625 18.125 -11.3125 C 17.53125 -10.070312 16.613281 -9.09375 15.375 -8.375 L 20.75 0 Z M 7.53125 -11.734375 L 10.765625 -11.734375 C 12.003906 -11.734375 12.90625 -12.09375 13.46875 -12.8125 C 14.03125 -13.539062 14.3125 -14.320312 14.3125 -15.15625 C 14.3125 -16 14.070312 -16.800781 13.59375 -17.5625 C 13.113281 -18.320312 12.179688 -18.703125 10.796875 -18.703125 L 7.53125 -18.703125 Z M 7.53125 -11.734375 "/></g></g></g><g fill="#000000" fill-opacity="1"><g transform="translate(115.857125, 274.665874)"><g><path d="M 10.515625 -0.9375 C 10.160156 -0.6875 9.671875 -0.445312 9.046875 -0.21875 C 8.429688 0.0078125 7.757812 0.125 7.03125 0.125 C 5.789062 0.125 4.707031 -0.144531 3.78125 -0.6875 C 2.851562 -1.226562 2.140625 -1.953125 1.640625 -2.859375 C 1.148438 -3.773438 0.90625 -4.78125 0.90625 -5.875 C 0.90625 -7.070312 1.148438 -8.140625 1.640625 -9.078125 C 2.140625 -10.023438 2.835938 -10.765625 3.734375 -11.296875 C 4.628906 -11.828125 5.644531 -12.09375 6.78125 -12.09375 C 7.476562 -12.09375 8.125 -12 8.71875 -11.8125 C 9.320312 -11.625 9.851562 -11.382812 10.3125 -11.09375 L 9.5625 -9.3125 C 8.675781 -9.9375 7.769531 -10.25 6.84375 -10.25 C 6.144531 -10.25 5.488281 -10.054688 4.875 -9.671875 C 4.269531 -9.296875 3.785156 -8.78125 3.421875 -8.125 C 3.066406 -7.476562 2.890625 -6.769531 2.890625 -6 C 2.890625 -5.175781 3.054688 -4.4375 3.390625 -3.78125 C 3.722656 -3.132812 4.195312 -2.625 4.8125 -2.25 C 5.4375 -1.882812 6.15625 -1.703125 6.96875 -1.703125 C 7.539062 -1.703125 8.0625 -1.789062 8.53125 -1.96875 C 9 -2.144531 9.390625 -2.367188 9.703125 -2.640625 Z M 10.515625 -0.9375 "/></g></g></g><g fill="#000000" fill-opacity="1"><g transform="translate(133.832375, 274.665874)"><g><path d="M 0.90625 -5.96875 C 0.90625 -7.0625 1.175781 -8.070312 1.71875 -9 C 2.269531 -9.9375 3.015625 -10.6875 3.953125 -11.25 C 4.890625 -11.8125 5.910156 -12.09375 7.015625 -12.09375 C 8.109375 -12.09375 9.125 -11.8125 10.0625 -11.25 C 11 -10.6875 11.742188 -9.9375 12.296875 -9 C 12.859375 -8.0625 13.140625 -7.050781 13.140625 -5.96875 C 13.140625 -4.851562 12.863281 -3.832031 12.3125 -2.90625 C 11.757812 -1.976562 11.007812 -1.238281 10.0625 -0.6875 C 9.125 -0.144531 8.109375 0.125 7.015625 0.125 C 5.910156 0.125 4.890625 -0.144531 3.953125 -0.6875 C 3.015625 -1.226562 2.269531 -1.960938 1.71875 -2.890625 C 1.175781 -3.816406 0.90625 -4.84375 0.90625 -5.96875 Z M 2.875 -5.96875 C 2.875 -5.1875 3.054688 -4.472656 3.421875 -3.828125 C 3.796875 -3.179688 4.300781 -2.664062 4.9375 -2.28125 C 5.582031 -1.894531 6.289062 -1.703125 7.0625 -1.703125 C 7.8125 -1.703125 8.5 -1.890625 9.125 -2.265625 C 9.75 -2.648438 10.242188 -3.164062 10.609375 -3.8125 C 10.984375 -4.46875 11.171875 -5.1875 11.171875 -5.96875 C 11.171875 -6.738281 10.984375 -7.453125 10.609375 -8.109375 C 10.234375 -8.765625 9.726562 -9.285156 9.09375 -9.671875 C 8.457031 -10.054688 7.765625 -10.25 7.015625 -10.25 C 6.242188 -10.25 5.539062 -10.054688 4.90625 -9.671875 C 4.28125 -9.285156 3.785156 -8.765625 3.421875 -8.109375 C 3.054688 -7.453125 2.875 -6.738281 2.875 -5.96875 Z M 2.875 -5.96875 "/></g></g></g><g fill="#000000" fill-opacity="1"><g transform="translate(154.434152, 274.665874)"><g><path d="M 7.78125 -2.8125 L 3.4375 -2.8125 L 2.28125 0 L 0.390625 0 L 5.6875 -12.453125 L 5.796875 -12.453125 L 11.078125 0 L 8.890625 0 Z M 7.140625 -4.453125 L 5.65625 -8.234375 L 4.109375 -4.453125 Z M 7.140625 -4.453125 "/></g></g></g><g fill="#000000" fill-opacity="1"><g transform="translate(172.475071, 274.665874)"><g><path d="M 10.515625 -0.9375 C 10.160156 -0.6875 9.671875 -0.445312 9.046875 -0.21875 C 8.429688 0.0078125 7.757812 0.125 7.03125 0.125 C 5.789062 0.125 4.707031 -0.144531 3.78125 -0.6875 C 2.851562 -1.226562 2.140625 -1.953125 1.640625 -2.859375 C 1.148438 -3.773438 0.90625 -4.78125 0.90625 -5.875 C 0.90625 -7.070312 1.148438 -8.140625 1.640625 -9.078125 C 2.140625 -10.023438 2.835938 -10.765625 3.734375 -11.296875 C 4.628906 -11.828125 5.644531 -12.09375 6.78125 -12.09375 C 7.476562 -12.09375 8.125 -12 8.71875 -11.8125 C 9.320312 -11.625 9.851562 -11.382812 10.3125 -11.09375 L 9.5625 -9.3125 C 8.675781 -9.9375 7.769531 -10.25 6.84375 -10.25 C 6.144531 -10.25 5.488281 -10.054688 4.875 -9.671875 C 4.269531 -9.296875 3.785156 -8.78125 3.421875 -8.125 C 3.066406 -7.476562 2.890625 -6.769531 2.890625 -6 C 2.890625 -5.175781 3.054688 -4.4375 3.390625 -3.78125 C 3.722656 -3.132812 4.195312 -2.625 4.8125 -2.25 C 5.4375 -1.882812 6.15625 -1.703125 6.96875 -1.703125 C 7.539062 -1.703125 8.0625 -1.789062 8.53125 -1.96875 C 9 -2.144531 9.390625 -2.367188 9.703125 -2.640625 Z M 10.515625 -0.9375 "/></g></g></g><g fill="#000000" fill-opacity="1"><g transform="translate(190.45032, 274.665874)"><g><path d="M 11.359375 0 L 9.4375 0 L 9.4375 -5.09375 L 3.5625 -5.09375 L 3.5625 0 L 1.640625 0 L 1.640625 -11.953125 L 3.5625 -11.953125 L 3.5625 -6.90625 L 9.4375 -6.90625 L 9.4375 -11.953125 L 11.359375 -11.953125 Z M 11.359375 0 "/></g></g></g><g fill="#000000" fill-opacity="1"><g transform="translate(210.017912, 274.665874)"><g><path d="M 3.5625 -11.953125 L 3.5625 0 L 1.640625 0 L 1.640625 -11.953125 Z M 3.5625 -11.953125 "/></g></g></g><g fill="#000000" fill-opacity="1"><g transform="translate(221.788002, 274.665874)"><g><path d="M 12.203125 -11.953125 L 12.203125 0.421875 L 12.15625 0.421875 L 3.53125 -7.9375 L 3.578125 0 L 1.640625 0 L 1.640625 -12.359375 L 1.734375 -12.359375 L 10.328125 -3.90625 L 10.296875 -11.953125 Z M 12.203125 -11.953125 "/></g></g></g><g fill="#000000" fill-opacity="1"><g transform="translate(242.209206, 274.665874)"><g><path d="M 11.15625 -1.09375 C 10.820312 -0.789062 10.242188 -0.507812 9.421875 -0.25 C 8.609375 0 7.863281 0.125 7.1875 0.125 C 5.925781 0.125 4.820312 -0.125 3.875 -0.625 C 2.925781 -1.125 2.191406 -1.8125 1.671875 -2.6875 C 1.160156 -3.570312 0.90625 -4.578125 0.90625 -5.703125 C 0.90625 -7.046875 1.179688 -8.195312 1.734375 -9.15625 C 2.285156 -10.125 3.03125 -10.851562 3.96875 -11.34375 C 4.90625 -11.84375 5.929688 -12.09375 7.046875 -12.09375 C 7.734375 -12.09375 8.382812 -12.007812 9 -11.84375 C 9.625 -11.6875 10.171875 -11.476562 10.640625 -11.21875 L 10.015625 -9.4375 C 9.691406 -9.632812 9.257812 -9.804688 8.71875 -9.953125 C 8.175781 -10.097656 7.703125 -10.171875 7.296875 -10.171875 C 5.921875 -10.171875 4.835938 -9.789062 4.046875 -9.03125 C 3.265625 -8.28125 2.875 -7.222656 2.875 -5.859375 C 2.875 -5.046875 3.054688 -4.332031 3.421875 -3.71875 C 3.785156 -3.101562 4.300781 -2.625 4.96875 -2.28125 C 5.632812 -1.945312 6.390625 -1.78125 7.234375 -1.78125 C 7.617188 -1.78125 7.988281 -1.8125 8.34375 -1.875 C 8.695312 -1.945312 8.992188 -2.050781 9.234375 -2.1875 L 9.234375 -4.171875 L 6.984375 -4.171875 L 6.984375 -6.015625 L 11.15625 -6.015625 Z M 11.15625 -1.09375 "/></g></g></g></svg>