<svg xmlns="http://www.w3.org/2000/svg" xmlns:xlink="http://www.w3.org/1999/xlink" width="1920" zoomAndPan="magnify" viewBox="0 0 1440 809.999993" height="1080" preserveAspectRatio="xMidYMid meet" version="1.0"><defs><g/><clipPath id="574881ad15"><path d="M 1397.378906 298.058594 L 1439.789062 298.058594 L 1439.789062 340.46875 L 1397.378906 340.46875 Z M 1397.378906 298.058594 " clip-rule="nonzero"/></clipPath><clipPath id="00a29b20e5"><path d="M 1418.582031 298.058594 C 1406.871094 298.058594 1397.378906 307.550781 1397.378906 319.265625 C 1397.378906 330.976562 1406.871094 340.46875 1418.582031 340.46875 C 1430.296875 340.46875 1439.789062 330.976562 1439.789062 319.265625 C 1439.789062 307.550781 1430.296875 298.058594 1418.582031 298.058594 Z M 1418.582031 298.058594 " clip-rule="nonzero"/></clipPath></defs><path stroke-linecap="butt" transform="matrix(0.75, 0, 0, 0.75, 119.559514, 400.875)" fill="none" stroke-linejoin="miter" d="M -0.00122674 5.500001 L 1608.233229 5.500001 " stroke="#1d1d1f" stroke-width="11" stroke-opacity="1" stroke-miterlimit="4"/><g clip-path="url(#574881ad15)"><g clip-path="url(#00a29b20e5)"><path fill="#4338ca" d="M 1397.378906 298.058594 L 1439.789062 298.058594 L 1439.789062 340.46875 L 1397.378906 340.46875 Z M 1397.378906 298.058594 " fill-opacity="1" fill-rule="nonzero"/></g></g><g fill="#1d1d1f" fill-opacity="1"><g transform="translate(52.243858, 337.820919)"><g><path d="M 13.96875 -159.375 L 51.75 -159.375 L 69.25 -66.703125 L 88.140625 -159.375 L 124.546875 -159.375 L 127.296875 0 L 102.3125 0 L 99.359375 -106.046875 L 80.859375 0 L 58.625 0 L 38.953125 -106.828125 L 36.59375 0 L 11.21875 0 Z M 13.96875 -159.375 "/></g></g></g><g fill="#1d1d1f" fill-opacity="1"><g transform="translate(190.75238, 337.820919)"><g><path d="M 34.234375 -159.375 L 74.375 -159.375 L 104.078125 0 L 71.609375 0 L 66.3125 -33.640625 L 42.890625 -33.640625 L 37.375 0 L 4.125 0 Z M 62.953125 -54.703125 L 54.5 -116.875 L 46.046875 -54.703125 Z M 62.953125 -54.703125 "/></g></g></g><g fill="#1d1d1f" fill-opacity="1"><g transform="translate(299.158928, 337.820919)"><g><path d="M 11.8125 -159.375 L 55.6875 -159.375 C 73.125 -159.375 86.300781 -156.289062 95.21875 -150.125 C 104.144531 -143.957031 108.609375 -133.003906 108.609375 -117.265625 C 108.609375 -106.640625 107.226562 -98.175781 104.46875 -91.875 C 101.71875 -85.582031 96.601562 -80.664062 89.125 -77.125 L 110.96875 0 L 74.5625 0 L 57.0625 -71.421875 L 47.015625 -71.421875 L 47.015625 0 L 11.8125 0 Z M 56.859375 -91.6875 C 63.941406 -91.6875 68.894531 -93.554688 71.71875 -97.296875 C 74.539062 -101.035156 75.953125 -106.640625 75.953125 -114.109375 C 75.953125 -121.328125 74.640625 -126.738281 72.015625 -130.34375 C 69.390625 -133.945312 64.863281 -135.75 58.4375 -135.75 L 47.015625 -135.75 L 47.015625 -91.6875 Z M 56.859375 -91.6875 "/></g></g></g><g fill="#1d1d1f" fill-opacity="1"><g transform="translate(417.205963, 337.820919)"><g><path d="M 12 -159.375 L 47.21875 -159.375 L 47.21875 0 L 12 0 Z M 12 -159.375 "/></g></g></g><g fill="#1d1d1f" fill-opacity="1"><g transform="translate(476.426233, 337.820919)"><g><path d="M 11.8125 -159.375 L 36.59375 -159.375 L 69.25 -82.640625 L 69.25 -159.375 L 98.375 -159.375 L 98.375 0 L 74.5625 0 L 41.90625 -82.640625 L 41.90625 0 L 11.8125 0 Z M 11.8125 -159.375 "/></g></g></g><g fill="#1d1d1f" fill-opacity="1"><g transform="translate(586.80019, 337.820919)"><g><path d="M 34.234375 -159.375 L 74.375 -159.375 L 104.078125 0 L 71.609375 0 L 66.3125 -33.640625 L 42.890625 -33.640625 L 37.375 0 L 4.125 0 Z M 62.953125 -54.703125 L 54.5 -116.875 L 46.046875 -54.703125 Z M 62.953125 -54.703125 "/></g></g></g><g fill="#1d1d1f" fill-opacity="1"><g transform="translate(695.206739, 337.820919)"><g/></g></g><g fill="#1d1d1f" fill-opacity="1"><g transform="translate(745.573473, 337.820919)"><g><path d="M 11.8125 -159.375 L 53.3125 -159.375 C 63.675781 -159.375 72.5 -158.289062 79.78125 -156.125 C 87.0625 -153.957031 92.929688 -149.789062 97.390625 -143.625 C 101.847656 -137.457031 104.078125 -128.800781 104.078125 -117.65625 C 104.078125 -108.207031 102.039062 -100.859375 97.96875 -95.609375 C 93.90625 -90.367188 88.140625 -87.03125 80.671875 -85.59375 C 89.847656 -84.40625 96.863281 -80.53125 101.71875 -73.96875 C 106.570312 -67.414062 109 -58.5 109 -47.21875 C 109 -15.738281 92.929688 0 60.796875 0 L 11.8125 0 Z M 53.90625 -95.625 C 61.382812 -95.625 66.46875 -97.328125 69.15625 -100.734375 C 71.84375 -104.140625 73.1875 -109.453125 73.1875 -116.671875 C 73.1875 -122.960938 71.476562 -127.710938 68.0625 -130.921875 C 64.65625 -134.140625 59.675781 -135.75 53.125 -135.75 L 47.015625 -135.75 L 47.015625 -95.625 Z M 54.5 -24.59375 C 61.976562 -24.59375 67.257812 -26.460938 70.34375 -30.203125 C 73.425781 -33.941406 74.96875 -39.8125 74.96875 -47.8125 C 74.96875 -56.863281 73.425781 -63.222656 70.34375 -66.890625 C 67.257812 -70.566406 61.910156 -72.40625 54.296875 -72.40625 L 47.015625 -72.40625 L 47.015625 -24.59375 Z M 54.5 -24.59375 "/></g></g></g><g fill="#1d1d1f" fill-opacity="1"><g transform="translate(861.259541, 337.820919)"><g><path d="M 11.8125 -159.375 L 83.421875 -159.375 L 83.421875 -135.359375 L 47.015625 -135.359375 L 47.015625 -95.8125 L 74.765625 -95.8125 L 74.765625 -71.421875 L 47.015625 -71.421875 L 47.015625 -23.8125 L 83.8125 -23.8125 L 83.8125 0 L 11.8125 0 Z M 11.8125 -159.375 "/></g></g></g><g fill="#1d1d1f" fill-opacity="1"><g transform="translate(949.204602, 337.820919)"><g><path d="M 11.8125 -159.375 L 55.6875 -159.375 C 73.125 -159.375 86.300781 -156.289062 95.21875 -150.125 C 104.144531 -143.957031 108.609375 -133.003906 108.609375 -117.265625 C 108.609375 -106.640625 107.226562 -98.175781 104.46875 -91.875 C 101.71875 -85.582031 96.601562 -80.664062 89.125 -77.125 L 110.96875 0 L 74.5625 0 L 57.0625 -71.421875 L 47.015625 -71.421875 L 47.015625 0 L 11.8125 0 Z M 56.859375 -91.6875 C 63.941406 -91.6875 68.894531 -93.554688 71.71875 -97.296875 C 74.539062 -101.035156 75.953125 -106.640625 75.953125 -114.109375 C 75.953125 -121.328125 74.640625 -126.738281 72.015625 -130.34375 C 69.390625 -133.945312 64.863281 -135.75 58.4375 -135.75 L 47.015625 -135.75 L 47.015625 -91.6875 Z M 56.859375 -91.6875 "/></g></g></g><g fill="#1d1d1f" fill-opacity="1"><g transform="translate(1067.251637, 337.820919)"><g><path d="M 53.3125 2.359375 C 37.570312 2.359375 26.359375 -2.425781 19.671875 -12 C 12.984375 -21.570312 9.640625 -35.148438 9.640625 -52.734375 L 9.640625 -106.25 C 9.640625 -124.21875 13.28125 -137.921875 20.5625 -147.359375 C 27.84375 -156.804688 40.140625 -161.53125 57.453125 -161.53125 C 74.109375 -161.53125 86.039062 -157.460938 93.25 -149.328125 C 100.46875 -141.203125 104.078125 -129.726562 104.078125 -114.90625 L 104.078125 -104.671875 L 69.65625 -104.671875 L 69.65625 -117.65625 C 69.65625 -123.945312 68.929688 -128.695312 67.484375 -131.90625 C 66.046875 -135.125 62.832031 -136.734375 57.84375 -136.734375 C 52.726562 -136.734375 49.414062 -134.960938 47.90625 -131.421875 C 46.394531 -127.878906 45.640625 -122.960938 45.640625 -116.671875 L 45.640625 -42.890625 C 45.640625 -36.597656 46.59375 -31.644531 48.5 -28.03125 C 50.40625 -24.425781 53.847656 -22.625 58.828125 -22.625 C 68.003906 -22.625 72.59375 -29.507812 72.59375 -43.28125 L 72.59375 -61.96875 L 58.234375 -61.96875 L 58.234375 -82.640625 L 104.28125 -82.640625 L 104.28125 0 L 81.0625 0 L 79.09375 -13.1875 C 74.101562 -2.820312 65.507812 2.359375 53.3125 2.359375 Z M 53.3125 2.359375 "/></g></g></g><g fill="#1d1d1f" fill-opacity="1"><g transform="translate(1181.757248, 337.820919)"><g><path d="M 11.8125 -159.375 L 83.421875 -159.375 L 83.421875 -135.359375 L 47.015625 -135.359375 L 47.015625 -95.8125 L 74.765625 -95.8125 L 74.765625 -71.421875 L 47.015625 -71.421875 L 47.015625 -23.8125 L 83.8125 -23.8125 L 83.8125 0 L 11.8125 0 Z M 11.8125 -159.375 "/></g></g></g><g fill="#1d1d1f" fill-opacity="1"><g transform="translate(1269.702255, 337.820919)"><g><path d="M 11.8125 -159.375 L 55.6875 -159.375 C 73.125 -159.375 86.300781 -156.289062 95.21875 -150.125 C 104.144531 -143.957031 108.609375 -133.003906 108.609375 -117.265625 C 108.609375 -106.640625 107.226562 -98.175781 104.46875 -91.875 C 101.71875 -85.582031 96.601562 -80.664062 89.125 -77.125 L 110.96875 0 L 74.5625 0 L 57.0625 -71.421875 L 47.015625 -71.421875 L 47.015625 0 L 11.8125 0 Z M 56.859375 -91.6875 C 63.941406 -91.6875 68.894531 -93.554688 71.71875 -97.296875 C 74.539062 -101.035156 75.953125 -106.640625 75.953125 -114.109375 C 75.953125 -121.328125 74.640625 -126.738281 72.015625 -130.34375 C 69.390625 -133.945312 64.863281 -135.75 58.4375 -135.75 L 47.015625 -135.75 L 47.015625 -91.6875 Z M 56.859375 -91.6875 "/></g></g></g><g fill="#1d1d1f" fill-opacity="1"><g transform="translate(540.914347, 489.333302)"><g><path d="M 21.21875 0.484375 C 18.59375 0.484375 16.140625 -0.00390625 13.859375 -0.984375 C 11.585938 -1.960938 9.578125 -3.320312 7.828125 -5.0625 C 6.085938 -6.8125 4.726562 -8.820312 3.75 -11.09375 C 2.769531 -13.375 2.28125 -15.820312 2.28125 -18.4375 C 2.28125 -21.0625 2.769531 -23.507812 3.75 -25.78125 C 4.726562 -28.0625 6.085938 -30.070312 7.828125 -31.8125 C 9.578125 -33.5625 11.585938 -34.925781 13.859375 -35.90625 C 16.140625 -36.882812 18.59375 -37.375 21.21875 -37.375 C 24.863281 -37.375 28.179688 -36.441406 31.171875 -34.578125 C 34.160156 -32.710938 36.4375 -30.265625 38 -27.234375 L 30.984375 -23.609375 C 30.085938 -25.367188 28.773438 -26.78125 27.046875 -27.84375 C 25.328125 -28.914062 23.382812 -29.453125 21.21875 -29.453125 C 19.164062 -29.453125 17.304688 -28.96875 15.640625 -28 C 13.984375 -27.039062 12.671875 -25.726562 11.703125 -24.0625 C 10.742188 -22.40625 10.265625 -20.53125 10.265625 -18.4375 C 10.265625 -16.351562 10.742188 -14.476562 11.703125 -12.8125 C 12.671875 -11.15625 13.984375 -9.84375 15.640625 -8.875 C 17.304688 -7.914062 19.164062 -7.4375 21.21875 -7.4375 C 23.382812 -7.4375 25.328125 -7.96875 27.046875 -9.03125 C 28.773438 -10.101562 30.085938 -11.519531 30.984375 -13.28125 L 38 -9.65625 C 36.4375 -6.664062 34.160156 -4.226562 31.171875 -2.34375 C 28.179688 -0.457031 24.863281 0.484375 21.21875 0.484375 Z M 21.21875 0.484375 "/></g></g></g><g fill="#1d1d1f" fill-opacity="1"><g transform="translate(590.347698, 489.333302)"><g><path d="M 21.21875 0.484375 C 18.59375 0.484375 16.140625 -0.00390625 13.859375 -0.984375 C 11.585938 -1.960938 9.578125 -3.320312 7.828125 -5.0625 C 6.085938 -6.8125 4.726562 -8.820312 3.75 -11.09375 C 2.769531 -13.375 2.28125 -15.820312 2.28125 -18.4375 C 2.28125 -21.0625 2.769531 -23.507812 3.75 -25.78125 C 4.726562 -28.0625 6.085938 -30.070312 7.828125 -31.8125 C 9.578125 -33.5625 11.585938 -34.925781 13.859375 -35.90625 C 16.140625 -36.882812 18.59375 -37.375 21.21875 -37.375 C 23.832031 -37.375 26.285156 -36.882812 28.578125 -35.90625 C 30.878906 -34.925781 32.890625 -33.5625 34.609375 -31.8125 C 36.335938 -30.070312 37.691406 -28.0625 38.671875 -25.78125 C 39.660156 -23.507812 40.15625 -21.0625 40.15625 -18.4375 C 40.15625 -15.820312 39.660156 -13.375 38.671875 -11.09375 C 37.691406 -8.820312 36.335938 -6.8125 34.609375 -5.0625 C 32.890625 -3.320312 30.878906 -1.960938 28.578125 -0.984375 C 26.285156 -0.00390625 23.832031 0.484375 21.21875 0.484375 Z M 21.21875 -7.4375 C 23.300781 -7.4375 25.171875 -7.914062 26.828125 -8.875 C 28.492188 -9.84375 29.804688 -11.15625 30.765625 -12.8125 C 31.734375 -14.476562 32.21875 -16.351562 32.21875 -18.4375 C 32.21875 -20.53125 31.734375 -22.40625 30.765625 -24.0625 C 29.804688 -25.726562 28.492188 -27.039062 26.828125 -28 C 25.171875 -28.96875 23.300781 -29.453125 21.21875 -29.453125 C 19.164062 -29.453125 17.304688 -28.96875 15.640625 -28 C 13.984375 -27.039062 12.671875 -25.726562 11.703125 -24.0625 C 10.742188 -22.40625 10.265625 -20.53125 10.265625 -18.4375 C 10.265625 -16.351562 10.742188 -14.476562 11.703125 -12.8125 C 12.671875 -11.15625 13.984375 -9.84375 15.640625 -8.875 C 17.304688 -7.914062 19.164062 -7.4375 21.21875 -7.4375 Z M 21.21875 -7.4375 "/></g></g></g><g fill="#1d1d1f" fill-opacity="1"><g transform="translate(642.670796, 489.333302)"><g><path d="M 26.1875 0 L 23.921875 -6.953125 L 10.140625 -6.953125 L 7.875 0 L -0.796875 0 L 12.484375 -36.890625 L 21.578125 -36.890625 L 34.859375 0 Z M 12.296875 -13.71875 L 21.765625 -13.71875 L 17.03125 -28.34375 Z M 12.296875 -13.71875 "/></g></g></g><g fill="#1d1d1f" fill-opacity="1"><g transform="translate(686.570551, 489.333302)"><g><path d="M 21.21875 0.484375 C 18.59375 0.484375 16.140625 -0.00390625 13.859375 -0.984375 C 11.585938 -1.960938 9.578125 -3.320312 7.828125 -5.0625 C 6.085938 -6.8125 4.726562 -8.820312 3.75 -11.09375 C 2.769531 -13.375 2.28125 -15.820312 2.28125 -18.4375 C 2.28125 -21.0625 2.769531 -23.507812 3.75 -25.78125 C 4.726562 -28.0625 6.085938 -30.070312 7.828125 -31.8125 C 9.578125 -33.5625 11.585938 -34.925781 13.859375 -35.90625 C 16.140625 -36.882812 18.59375 -37.375 21.21875 -37.375 C 24.863281 -37.375 28.179688 -36.441406 31.171875 -34.578125 C 34.160156 -32.710938 36.4375 -30.265625 38 -27.234375 L 30.984375 -23.609375 C 30.085938 -25.367188 28.773438 -26.78125 27.046875 -27.84375 C 25.328125 -28.914062 23.382812 -29.453125 21.21875 -29.453125 C 19.164062 -29.453125 17.304688 -28.96875 15.640625 -28 C 13.984375 -27.039062 12.671875 -25.726562 11.703125 -24.0625 C 10.742188 -22.40625 10.265625 -20.53125 10.265625 -18.4375 C 10.265625 -16.351562 10.742188 -14.476562 11.703125 -12.8125 C 12.671875 -11.15625 13.984375 -9.84375 15.640625 -8.875 C 17.304688 -7.914062 19.164062 -7.4375 21.21875 -7.4375 C 23.382812 -7.4375 25.328125 -7.96875 27.046875 -9.03125 C 28.773438 -10.101562 30.085938 -11.519531 30.984375 -13.28125 L 38 -9.65625 C 36.4375 -6.664062 34.160156 -4.226562 31.171875 -2.34375 C 28.179688 -0.457031 24.863281 0.484375 21.21875 0.484375 Z M 21.21875 0.484375 "/></g></g></g><g fill="#1d1d1f" fill-opacity="1"><g transform="translate(736.003903, 489.333302)"><g><path d="M 26.75 -36.890625 L 34.796875 -36.890625 L 34.796875 0 L 26.75 0 L 26.75 -14.875 L 11.75 -14.875 L 11.75 0 L 3.625 0 L 3.625 -36.890625 L 11.75 -36.890625 L 11.75 -22.078125 L 26.75 -22.078125 Z M 26.75 -36.890625 "/></g></g></g><g fill="#1d1d1f" fill-opacity="1"><g transform="translate(784.330523, 489.333302)"><g><path d="M 3.9375 0 L 3.9375 -36.890625 L 12.046875 -36.890625 L 12.046875 0 Z M 3.9375 0 "/></g></g></g><g fill="#1d1d1f" fill-opacity="1"><g transform="translate(810.092415, 489.333302)"><g><path d="M 30.125 -36.890625 L 38.1875 -36.890625 L 38.1875 0 L 29.8125 0 L 11.75 -24.46875 L 11.75 0 L 3.625 0 L 3.625 -36.890625 L 11.984375 -36.890625 L 30.125 -12.484375 Z M 30.125 -36.890625 "/></g></g></g><g fill="#1d1d1f" fill-opacity="1"><g transform="translate(861.800667, 489.333302)"><g><path d="M 21.21875 -20.234375 L 40.203125 -20.234375 L 40.203125 -18.4375 C 40.203125 -15.820312 39.710938 -13.375 38.734375 -11.09375 C 37.753906 -8.820312 36.390625 -6.8125 34.640625 -5.0625 C 32.898438 -3.320312 30.890625 -1.960938 28.609375 -0.984375 C 26.335938 -0.00390625 23.894531 0.484375 21.28125 0.484375 C 18.65625 0.484375 16.191406 -0.00390625 13.890625 -0.984375 C 11.597656 -1.960938 9.585938 -3.320312 7.859375 -5.0625 C 6.140625 -6.8125 4.789062 -8.820312 3.8125 -11.09375 C 2.832031 -13.375 2.34375 -15.820312 2.34375 -18.4375 C 2.34375 -21.0625 2.832031 -23.507812 3.8125 -25.78125 C 4.789062 -28.0625 6.140625 -30.070312 7.859375 -31.8125 C 9.585938 -33.5625 11.597656 -34.925781 13.890625 -35.90625 C 16.191406 -36.882812 18.65625 -37.375 21.28125 -37.375 C 24.925781 -37.375 28.234375 -36.441406 31.203125 -34.578125 C 34.171875 -32.710938 36.457031 -30.265625 38.0625 -27.234375 L 31.046875 -23.609375 C 30.148438 -25.367188 28.835938 -26.78125 27.109375 -27.84375 C 25.390625 -28.914062 23.445312 -29.453125 21.28125 -29.453125 C 19.226562 -29.453125 17.359375 -28.96875 15.671875 -28 C 13.992188 -27.039062 12.671875 -25.726562 11.703125 -24.0625 C 10.742188 -22.40625 10.265625 -20.53125 10.265625 -18.4375 C 10.265625 -16.351562 10.742188 -14.476562 11.703125 -12.8125 C 12.671875 -11.15625 13.992188 -9.84375 15.671875 -8.875 C 17.359375 -7.914062 19.226562 -7.4375 21.28125 -7.4375 C 23.570312 -7.4375 25.609375 -8.03125 27.390625 -9.21875 C 29.171875 -10.40625 30.492188 -11.960938 31.359375 -13.890625 L 21.21875 -13.890625 Z M 21.21875 -20.234375 "/></g></g></g></svg>