<svg xmlns="http://www.w3.org/2000/svg" xmlns:xlink="http://www.w3.org/1999/xlink" width="3515" zoomAndPan="magnify" viewBox="0 0 2635.92 283.499996" height="378" preserveAspectRatio="xMidYMid meet" version="1.0"><defs><g/><clipPath id="4e152ebda9"><path d="M 2520.890625 156.460938 L 2619.09375 156.460938 L 2619.09375 254.667969 L 2520.890625 254.667969 Z M 2520.890625 156.460938 " clip-rule="nonzero"/></clipPath><clipPath id="e40c0aae71"><path d="M 2569.992188 156.460938 C 2542.875 156.460938 2520.890625 178.445312 2520.890625 205.566406 C 2520.890625 232.683594 2542.875 254.667969 2569.992188 254.667969 C 2597.109375 254.667969 2619.09375 232.683594 2619.09375 205.566406 C 2619.09375 178.445312 2597.109375 156.460938 2569.992188 156.460938 Z M 2569.992188 156.460938 " clip-rule="nonzero"/></clipPath></defs><g fill="#1d1d1f" fill-opacity="1"><g transform="translate(22.961387, 253.720523)"><g><path d="M 212.375 -218.9375 L 264.1875 -218.9375 L 264.1875 0 L 216.015625 0 L 216.015625 -130.265625 L 156.546875 0 L 128.8125 0 L 69.703125 -130.640625 L 69.703125 0 L 21.53125 0 L 21.53125 -218.9375 L 73.703125 -218.9375 L 142.671875 -67.5 Z M 212.375 -218.9375 "/></g></g></g><g fill="#1d1d1f" fill-opacity="1"><g transform="translate(308.675504, 253.720523)"><g><path d="M 155.453125 0 L 141.953125 -41.234375 L 60.203125 -41.234375 L 46.703125 0 L -4.75 0 L 74.078125 -218.9375 L 128.078125 -218.9375 L 206.90625 0 Z M 72.984375 -81.375 L 129.171875 -81.375 L 101.078125 -168.21875 Z M 72.984375 -81.375 "/></g></g></g><g fill="#1d1d1f" fill-opacity="1"><g transform="translate(510.828278, 253.720523)"><g><path d="M 135.75 -90.125 L 197.046875 0 L 143.046875 0 L 89.03125 -84.65625 L 69.703125 -84.65625 L 69.703125 0 L 21.53125 0 L 21.53125 -218.9375 L 114.578125 -218.9375 C 127.222656 -218.9375 138.410156 -215.957031 148.140625 -210 C 157.878906 -204.039062 165.601562 -195.953125 171.3125 -185.734375 C 177.03125 -175.515625 179.890625 -164.203125 179.890625 -151.796875 C 179.890625 -136.960938 175.753906 -123.945312 167.484375 -112.75 C 159.210938 -101.5625 148.632812 -94.019531 135.75 -90.125 Z M 107.28125 -124.4375 C 115.0625 -124.4375 121.445312 -126.867188 126.4375 -131.734375 C 131.425781 -136.597656 133.921875 -142.800781 133.921875 -150.34375 C 133.921875 -157.882812 131.425781 -164.085938 126.4375 -168.953125 C 121.445312 -173.816406 115.0625 -176.25 107.28125 -176.25 L 69.703125 -176.25 L 69.703125 -124.4375 Z M 107.28125 -124.4375 "/></g></g></g><g fill="#1d1d1f" fill-opacity="1"><g transform="translate(706.048024, 253.720523)"><g><path d="M 23.359375 0 L 23.359375 -218.9375 L 71.515625 -218.9375 L 71.515625 0 Z M 23.359375 0 "/></g></g></g><g fill="#1d1d1f" fill-opacity="1"><g transform="translate(800.556295, 253.720523)"><g><path d="M 178.796875 -218.9375 L 226.609375 -218.9375 L 226.609375 0 L 176.984375 0 L 69.703125 -145.234375 L 69.703125 0 L 21.53125 0 L 21.53125 -218.9375 L 71.15625 -218.9375 L 178.796875 -74.078125 Z M 178.796875 -218.9375 "/></g></g></g><g fill="#1d1d1f" fill-opacity="1"><g transform="translate(1049.050999, 253.720523)"><g><path d="M 155.453125 0 L 141.953125 -41.234375 L 60.203125 -41.234375 L 46.703125 0 L -4.75 0 L 74.078125 -218.9375 L 128.078125 -218.9375 L 206.90625 0 Z M 72.984375 -81.375 L 129.171875 -81.375 L 101.078125 -168.21875 Z M 72.984375 -81.375 "/></g></g></g><g fill="#1d1d1f" fill-opacity="1"><g transform="translate(1251.203795, 253.720523)"><g/></g></g><g fill="#1d1d1f" fill-opacity="1"><g transform="translate(1338.779011, 253.720523)"><g><path d="M 153.265625 -110.9375 C 163.472656 -107.039062 171.738281 -100.894531 178.0625 -92.5 C 184.394531 -84.101562 187.5625 -73.21875 187.5625 -59.84375 C 187.5625 -46.945312 184.703125 -36.054688 178.984375 -27.171875 C 173.265625 -18.296875 165.476562 -11.546875 155.625 -6.921875 C 145.78125 -2.304688 134.773438 0 122.609375 0 L 21.53125 0 L 21.53125 -218.9375 L 114.21875 -218.9375 C 126.625 -218.9375 137.8125 -216.5625 147.78125 -211.8125 C 157.757812 -207.070312 165.664062 -200.140625 171.5 -191.015625 C 177.34375 -181.898438 180.265625 -170.894531 180.265625 -158 C 180.265625 -146.570312 177.832031 -136.960938 172.96875 -129.171875 C 168.101562 -121.390625 161.535156 -115.3125 153.265625 -110.9375 Z M 132.09375 -152.890625 C 132.09375 -159.460938 129.78125 -165 125.15625 -169.5 C 120.539062 -174 114.945312 -176.25 108.375 -176.25 L 69.703125 -176.25 L 69.703125 -129.171875 L 108.375 -129.171875 C 114.945312 -129.171875 120.539062 -131.539062 125.15625 -136.28125 C 129.78125 -141.03125 132.09375 -146.566406 132.09375 -152.890625 Z M 115.671875 -42.6875 C 122.484375 -42.6875 128.140625 -44.9375 132.640625 -49.4375 C 137.140625 -53.9375 139.390625 -59.472656 139.390625 -66.046875 C 139.390625 -72.367188 137.140625 -77.898438 132.640625 -82.640625 C 128.140625 -87.390625 122.484375 -89.765625 115.671875 -89.765625 L 69.703125 -89.765625 L 69.703125 -42.6875 Z M 115.671875 -42.6875 "/></g></g></g><g fill="#1d1d1f" fill-opacity="1"><g transform="translate(1536.917889, 253.720523)"><g><path d="M 155.078125 -176.609375 L 71.515625 -176.609375 L 71.515625 -130.640625 L 143.046875 -130.640625 L 143.046875 -88.3125 L 71.515625 -88.3125 L 71.515625 -42.328125 L 155.078125 -42.328125 L 155.078125 0 L 23.359375 0 L 23.359375 -218.9375 L 155.078125 -218.9375 Z M 155.078125 -176.609375 "/></g></g></g><g fill="#1d1d1f" fill-opacity="1"><g transform="translate(1706.959715, 253.720523)"><g><path d="M 135.75 -90.125 L 197.046875 0 L 143.046875 0 L 89.03125 -84.65625 L 69.703125 -84.65625 L 69.703125 0 L 21.53125 0 L 21.53125 -218.9375 L 114.578125 -218.9375 C 127.222656 -218.9375 138.410156 -215.957031 148.140625 -210 C 157.878906 -204.039062 165.601562 -195.953125 171.3125 -185.734375 C 177.03125 -175.515625 179.890625 -164.203125 179.890625 -151.796875 C 179.890625 -136.960938 175.753906 -123.945312 167.484375 -112.75 C 159.210938 -101.5625 148.632812 -94.019531 135.75 -90.125 Z M 107.28125 -124.4375 C 115.0625 -124.4375 121.445312 -126.867188 126.4375 -131.734375 C 131.425781 -136.597656 133.921875 -142.800781 133.921875 -150.34375 C 133.921875 -157.882812 131.425781 -164.085938 126.4375 -168.953125 C 121.445312 -173.816406 115.0625 -176.25 107.28125 -176.25 L 69.703125 -176.25 L 69.703125 -124.4375 Z M 107.28125 -124.4375 "/></g></g></g><g fill="#1d1d1f" fill-opacity="1"><g transform="translate(1902.179364, 253.720523)"><g><path d="M 125.890625 -120.046875 L 238.640625 -120.046875 L 238.640625 -109.46875 C 238.640625 -93.894531 235.71875 -79.359375 229.875 -65.859375 C 224.039062 -52.359375 215.953125 -40.4375 205.609375 -30.09375 C 195.273438 -19.757812 183.359375 -11.671875 169.859375 -5.828125 C 156.359375 0.00390625 141.820312 2.921875 126.25 2.921875 C 110.6875 2.921875 96.09375 0.00390625 82.46875 -5.828125 C 68.84375 -11.671875 56.921875 -19.757812 46.703125 -30.09375 C 36.484375 -40.4375 28.453125 -52.359375 22.609375 -65.859375 C 16.773438 -79.359375 13.859375 -93.894531 13.859375 -109.46875 C 13.859375 -125.039062 16.773438 -139.578125 22.609375 -153.078125 C 28.453125 -166.578125 36.484375 -178.492188 46.703125 -188.828125 C 56.921875 -199.171875 68.84375 -207.257812 82.46875 -213.09375 C 96.09375 -218.9375 110.6875 -221.859375 126.25 -221.859375 C 147.90625 -221.859375 167.550781 -216.320312 185.1875 -205.25 C 202.820312 -194.1875 216.382812 -179.65625 225.875 -161.65625 L 184.28125 -140.125 C 178.925781 -150.582031 171.140625 -158.972656 160.921875 -165.296875 C 150.703125 -171.617188 139.144531 -174.78125 126.25 -174.78125 C 114.09375 -174.78125 103.023438 -171.921875 93.046875 -166.203125 C 83.078125 -160.492188 75.234375 -152.710938 69.515625 -142.859375 C 63.796875 -133.003906 60.9375 -121.875 60.9375 -109.46875 C 60.9375 -97.0625 63.796875 -85.929688 69.515625 -76.078125 C 75.234375 -66.222656 83.078125 -58.4375 93.046875 -52.71875 C 103.023438 -47.007812 114.09375 -44.15625 126.25 -44.15625 C 139.875 -44.15625 151.976562 -47.679688 162.5625 -54.734375 C 173.144531 -61.785156 180.988281 -71.03125 186.09375 -82.46875 L 125.890625 -82.46875 Z M 125.890625 -120.046875 "/></g></g></g><g fill="#1d1d1f" fill-opacity="1"><g transform="translate(2154.687986, 253.720523)"><g><path d="M 155.078125 -176.609375 L 71.515625 -176.609375 L 71.515625 -130.640625 L 143.046875 -130.640625 L 143.046875 -88.3125 L 71.515625 -88.3125 L 71.515625 -42.328125 L 155.078125 -42.328125 L 155.078125 0 L 23.359375 0 L 23.359375 -218.9375 L 155.078125 -218.9375 Z M 155.078125 -176.609375 "/></g></g></g><g fill="#1d1d1f" fill-opacity="1"><g transform="translate(2324.729812, 253.720523)"><g><path d="M 135.75 -90.125 L 197.046875 0 L 143.046875 0 L 89.03125 -84.65625 L 69.703125 -84.65625 L 69.703125 0 L 21.53125 0 L 21.53125 -218.9375 L 114.578125 -218.9375 C 127.222656 -218.9375 138.410156 -215.957031 148.140625 -210 C 157.878906 -204.039062 165.601562 -195.953125 171.3125 -185.734375 C 177.03125 -175.515625 179.890625 -164.203125 179.890625 -151.796875 C 179.890625 -136.960938 175.753906 -123.945312 167.484375 -112.75 C 159.210938 -101.5625 148.632812 -94.019531 135.75 -90.125 Z M 107.28125 -124.4375 C 115.0625 -124.4375 121.445312 -126.867188 126.4375 -131.734375 C 131.425781 -136.597656 133.921875 -142.800781 133.921875 -150.34375 C 133.921875 -157.882812 131.425781 -164.085938 126.4375 -168.953125 C 121.445312 -173.816406 115.0625 -176.25 107.28125 -176.25 L 69.703125 -176.25 L 69.703125 -124.4375 Z M 107.28125 -124.4375 "/></g></g></g><g clip-path="url(#4e152ebda9)"><g clip-path="url(#e40c0aae71)"><path fill="#4338ca" d="M 2520.890625 156.460938 L 2619.09375 156.460938 L 2619.09375 254.667969 L 2520.890625 254.667969 Z M 2520.890625 156.460938 " fill-opacity="1" fill-rule="nonzero"/></g></g></svg>