<svg xmlns="http://www.w3.org/2000/svg" xmlns:xlink="http://www.w3.org/1999/xlink" width="500" zoomAndPan="magnify" viewBox="0 0 375 374.999991" height="500" preserveAspectRatio="xMidYMid meet" version="1.0"><defs><g/><clipPath id="80f926b9c8"><path d="M 74.527344 73 L 295.777344 73 L 295.777344 302 L 74.527344 302 Z M 74.527344 73 " clip-rule="nonzero"/></clipPath></defs><rect x="-37.5" width="450" fill="#ffffff" y="-37.499999" height="449.999989" fill-opacity="1"/><rect x="-37.5" width="450" fill="#ffffff" y="-37.499999" height="449.999989" fill-opacity="1"/><g clip-path="url(#80f926b9c8)"><path fill="#3d3b3a" d="M 157.410156 76.703125 C 159.203125 76.253906 161.007812 75.847656 162.820312 75.484375 C 164.632812 75.121094 166.453125 74.804688 168.285156 74.53125 C 170.113281 74.257812 171.949219 74.027344 173.789062 73.84375 C 175.628906 73.65625 177.472656 73.519531 179.316406 73.421875 C 181.164062 73.328125 183.011719 73.277344 184.863281 73.273438 C 186.710938 73.265625 188.558594 73.304688 190.40625 73.390625 C 192.253906 73.476562 194.097656 73.605469 195.941406 73.777344 C 197.78125 73.953125 199.617188 74.171875 201.449219 74.433594 C 203.277344 74.699219 205.101562 75.007812 206.917969 75.359375 C 208.730469 75.710938 210.539062 76.105469 212.335938 76.546875 C 214.128906 76.984375 215.914062 77.46875 217.6875 77.996094 C 219.460938 78.519531 221.21875 79.089844 222.964844 79.703125 C 224.710938 80.3125 226.4375 80.96875 228.152344 81.664062 C 229.867188 82.359375 231.5625 83.097656 233.238281 83.875 C 234.917969 84.652344 236.574219 85.472656 238.210938 86.328125 C 239.851562 87.1875 241.464844 88.085938 243.058594 89.023438 C 244.65625 89.960938 246.226562 90.9375 247.773438 91.949219 C 249.320312 92.964844 250.839844 94.015625 252.335938 95.101562 C 253.832031 96.191406 255.300781 97.3125 256.742188 98.472656 C 258.183594 99.628906 259.59375 100.824219 260.976562 102.050781 C 262.359375 103.277344 263.714844 104.539062 265.035156 105.832031 C 266.355469 107.125 267.648438 108.449219 268.902344 109.804688 C 270.160156 111.164062 271.386719 112.546875 272.574219 113.964844 C 273.765625 115.378906 274.921875 116.820312 276.042969 118.292969 C 277.160156 119.765625 278.246094 121.261719 279.292969 122.789062 C 280.339844 124.3125 281.347656 125.859375 282.320312 127.433594 C 283.292969 129.007812 284.226562 130.601562 285.121094 132.222656 C 286.015625 133.839844 286.871094 135.480469 287.6875 137.140625 C 288.5 138.800781 289.273438 140.476562 290.007812 142.175781 C 290.742188 143.875 291.433594 145.589844 292.082031 147.320312 C 292.734375 149.050781 293.339844 150.796875 293.90625 152.558594 C 294.472656 154.320312 294.992188 156.09375 295.472656 157.878906 C 295.648438 158.539062 295.824219 159.210938 295.992188 159.894531 L 294.246094 160.503906 C 294.066406 159.785156 293.886719 159.070312 293.691406 158.351562 C 293.21875 156.582031 292.699219 154.824219 292.140625 153.078125 C 291.582031 151.335938 290.976562 149.605469 290.332031 147.886719 C 289.6875 146.171875 289 144.472656 288.273438 142.792969 C 287.542969 141.109375 286.773438 139.445312 285.964844 137.800781 C 285.15625 136.15625 284.304688 134.535156 283.417969 132.929688 C 282.527344 131.328125 281.601562 129.75 280.632812 128.191406 C 279.667969 126.632812 278.664062 125.101562 277.621094 123.59375 C 276.578125 122.085938 275.5 120.601562 274.386719 119.148438 C 273.273438 117.691406 272.125 116.265625 270.941406 114.867188 C 269.757812 113.464844 268.539062 112.097656 267.289062 110.757812 C 266.035156 109.417969 264.753906 108.109375 263.4375 106.832031 C 262.121094 105.554688 260.777344 104.3125 259.402344 103.101562 C 258.023438 101.890625 256.621094 100.714844 255.1875 99.574219 C 253.753906 98.429688 252.292969 97.324219 250.804688 96.253906 C 249.316406 95.183594 247.804688 94.148438 246.265625 93.152344 C 244.726562 92.15625 243.164062 91.199219 241.578125 90.277344 C 239.992188 89.359375 238.386719 88.480469 236.757812 87.636719 C 235.128906 86.796875 233.480469 85.996094 231.8125 85.234375 C 230.148438 84.472656 228.460938 83.753906 226.757812 83.078125 C 225.054688 82.398438 223.335938 81.761719 221.601562 81.167969 C 219.867188 80.574219 218.121094 80.023438 216.359375 79.515625 C 214.597656 79.007812 212.828125 78.542969 211.042969 78.121094 C 209.257812 77.699219 207.464844 77.320312 205.664062 76.988281 C 203.863281 76.652344 202.050781 76.363281 200.234375 76.121094 C 198.417969 75.875 196.597656 75.675781 194.773438 75.519531 C 192.945312 75.363281 191.117188 75.25 189.285156 75.183594 C 187.453125 75.117188 185.621094 75.097656 183.789062 75.121094 C 181.957031 75.144531 180.125 75.210938 178.296875 75.324219 C 176.464844 75.4375 174.640625 75.59375 172.820312 75.796875 C 170.996094 76 169.179688 76.246094 167.371094 76.539062 C 165.5625 76.828125 163.761719 77.164062 161.96875 77.542969 C 160.175781 77.921875 158.390625 78.347656 156.617188 78.8125 C 156.894531 78.117188 157.164062 77.417969 157.410156 76.707031 Z M 76.273438 214.730469 C 76.421875 215.320312 76.570312 215.902344 76.726562 216.488281 C 77.203125 218.265625 77.722656 220.027344 78.285156 221.777344 C 78.847656 223.527344 79.453125 225.261719 80.097656 226.980469 C 80.746094 228.699219 81.433594 230.402344 82.164062 232.089844 C 82.898438 233.773438 83.667969 235.441406 84.480469 237.089844 C 85.292969 238.738281 86.144531 240.363281 87.039062 241.972656 C 87.929688 243.578125 88.863281 245.160156 89.832031 246.722656 C 90.804688 248.28125 91.8125 249.816406 92.855469 251.328125 C 93.902344 252.839844 94.984375 254.324219 96.101562 255.78125 C 97.222656 257.238281 98.375 258.667969 99.5625 260.070312 C 100.753906 261.472656 101.972656 262.84375 103.230469 264.183594 C 104.484375 265.527344 105.773438 266.835938 107.09375 268.113281 C 108.414062 269.390625 109.765625 270.636719 111.148438 271.847656 C 112.527344 273.058594 113.9375 274.238281 115.378906 275.378906 C 116.816406 276.523438 118.28125 277.628906 119.777344 278.699219 C 121.269531 279.769531 122.789062 280.804688 124.332031 281.800781 C 125.875 282.796875 127.445312 283.753906 129.035156 284.671875 C 130.625 285.59375 132.238281 286.472656 133.875 287.3125 C 135.507812 288.152344 137.160156 288.949219 138.835938 289.710938 C 140.507812 290.46875 142.199219 291.1875 143.910156 291.863281 C 145.617188 292.539062 147.339844 293.171875 149.082031 293.761719 C 150.820312 294.351562 152.574219 294.902344 154.339844 295.40625 C 156.109375 295.910156 157.886719 296.375 159.675781 296.792969 C 161.464844 297.207031 163.261719 297.582031 165.070312 297.914062 C 166.878906 298.242188 168.695312 298.527344 170.515625 298.765625 C 172.335938 299.007812 174.164062 299.203125 175.996094 299.355469 C 177.828125 299.503906 179.660156 299.609375 181.496094 299.671875 C 183.332031 299.734375 185.171875 299.75 187.007812 299.71875 C 188.84375 299.691406 190.679688 299.617188 192.515625 299.496094 C 194.347656 299.375 196.175781 299.210938 198.003906 299.003906 C 199.828125 298.792969 201.648438 298.539062 203.460938 298.242188 C 205.273438 297.941406 207.078125 297.601562 208.875 297.214844 C 210.671875 296.828125 212.457031 296.394531 214.230469 295.921875 C 213.945312 296.617188 213.667969 297.320312 213.410156 298.03125 C 211.613281 298.488281 209.808594 298.902344 207.992188 299.273438 C 206.175781 299.640625 204.351562 299.964844 202.519531 300.246094 C 200.6875 300.527344 198.851562 300.765625 197.007812 300.953125 C 195.164062 301.144531 193.316406 301.292969 191.464844 301.394531 C 189.613281 301.496094 187.761719 301.550781 185.90625 301.5625 C 184.054688 301.574219 182.203125 301.539062 180.347656 301.460938 C 178.496094 301.378906 176.648438 301.257812 174.804688 301.085938 C 172.957031 300.917969 171.117188 300.703125 169.28125 300.445312 C 167.445312 300.1875 165.617188 299.882812 163.796875 299.535156 C 161.976562 299.1875 160.164062 298.792969 158.363281 298.359375 C 156.5625 297.921875 154.773438 297.441406 152.996094 296.917969 C 151.214844 296.394531 149.453125 295.828125 147.703125 295.21875 C 145.949219 294.609375 144.214844 293.960938 142.496094 293.265625 C 140.777344 292.570312 139.078125 291.835938 137.394531 291.058594 C 135.710938 290.285156 134.046875 289.46875 132.40625 288.609375 C 130.761719 287.75 129.140625 286.855469 127.539062 285.917969 C 125.941406 284.980469 124.363281 284.007812 122.8125 282.992188 C 121.261719 281.980469 119.734375 280.929688 118.234375 279.84375 C 116.734375 278.753906 115.257812 277.632812 113.8125 276.472656 C 112.367188 275.3125 110.949219 274.117188 109.5625 272.890625 C 108.171875 271.660156 106.816406 270.398438 105.488281 269.105469 C 104.164062 267.8125 102.867188 266.484375 101.605469 265.128906 C 100.34375 263.769531 99.117188 262.382812 97.921875 260.964844 C 96.726562 259.546875 95.566406 258.101562 94.445312 256.628906 C 93.320312 255.15625 92.230469 253.65625 91.179688 252.128906 C 90.128906 250.601562 89.117188 249.050781 88.140625 247.472656 C 87.164062 245.898438 86.230469 244.296875 85.332031 242.675781 C 84.433594 241.054688 83.578125 239.414062 82.757812 237.75 C 81.941406 236.085938 81.164062 234.402344 80.429688 232.703125 C 79.691406 231 79 229.28125 78.347656 227.546875 C 77.695312 225.8125 77.085938 224.0625 76.519531 222.296875 C 75.953125 220.53125 75.429688 218.753906 74.949219 216.964844 C 74.804688 216.425781 74.667969 215.882812 74.527344 215.34375 Z M 76.273438 214.730469 " fill-opacity="1" fill-rule="evenodd"/></g><g fill="#000000" fill-opacity="1"><g transform="translate(98.635058, 176.999988)"><g><path d="M 18 -16.15625 L 18 0 L 14.9375 0 L 14.9375 -7.40625 L 9.875 -0.21875 L 9.828125 -0.21875 L 4.953125 -6.9375 L 4.953125 0 L 2 0 L 2 -16.15625 L 2.03125 -16.15625 L 9.890625 -5 L 17.953125 -16.15625 Z M 18 -16.15625 "/></g></g></g><g fill="#000000" fill-opacity="1"><g transform="translate(135.495898, 176.999988)"><g><path d="M 9.6875 -3.03125 L 4.53125 -3.03125 L 3.265625 0 L 0.25 0 L 7.25 -16.140625 L 7.421875 -16.140625 L 14.421875 0 L 10.890625 0 Z M 8.671875 -5.609375 L 7.171875 -9.390625 L 5.609375 -5.609375 Z M 8.671875 -5.609375 "/></g></g></g><g fill="#000000" fill-opacity="1"><g transform="translate(167.044081, 176.999988)"><g><path d="M 10.375 0 L 7.109375 -4.9375 L 5.0625 -4.9375 L 5.0625 0 L 2 0 L 2 -15.53125 L 6.703125 -15.53125 C 8.628906 -15.53125 10.125 -15.0625 11.1875 -14.125 C 12.25 -13.1875 12.78125 -11.910156 12.78125 -10.296875 C 12.78125 -9.335938 12.578125 -8.4375 12.171875 -7.59375 C 11.773438 -6.757812 11.164062 -6.101562 10.34375 -5.625 L 13.9375 0 Z M 5.0625 -7.890625 L 7.234375 -7.890625 C 8.066406 -7.890625 8.671875 -8.128906 9.046875 -8.609375 C 9.429688 -9.097656 9.625 -9.625 9.625 -10.1875 C 9.625 -10.75 9.460938 -11.285156 9.140625 -11.796875 C 8.816406 -12.316406 8.1875 -12.578125 7.25 -12.578125 L 5.0625 -12.578125 Z M 5.0625 -7.890625 "/></g></g></g><g fill="#000000" fill-opacity="1"><g transform="translate(198.381435, 176.999988)"><g><path d="M 5.0625 -15.53125 L 5.0625 0 L 2 0 L 2 -15.53125 Z M 5.0625 -15.53125 "/></g></g></g><g fill="#000000" fill-opacity="1"><g transform="translate(222.319018, 176.999988)"><g><path d="M 15.984375 -15.53125 L 15.984375 0.640625 L 15.90625 0.640625 L 5.046875 -9.171875 L 5.109375 0 L 2 0 L 2 -16.140625 L 2.125 -16.140625 L 12.96875 -6.1875 L 12.90625 -15.53125 Z M 15.984375 -15.53125 "/></g></g></g><g fill="#000000" fill-opacity="1"><g transform="translate(257.177078, 176.999988)"><g><path d="M 9.6875 -3.03125 L 4.53125 -3.03125 L 3.265625 0 L 0.25 0 L 7.25 -16.140625 L 7.421875 -16.140625 L 14.421875 0 L 10.890625 0 Z M 8.671875 -5.609375 L 7.171875 -9.390625 L 5.609375 -5.609375 Z M 8.671875 -5.609375 "/></g></g></g><g fill="#000000" fill-opacity="1"><g transform="translate(99.701465, 206.249986)"><g><path d="M 10 -8.1875 C 10.8125 -7.800781 11.445312 -7.300781 11.90625 -6.6875 C 12.363281 -6.082031 12.59375 -5.378906 12.59375 -4.578125 C 12.59375 -3.003906 12.078125 -1.847656 11.046875 -1.109375 C 10.015625 -0.367188 8.722656 0 7.171875 0 L 2 0 L 2 -15.53125 L 6.5625 -15.53125 C 8.207031 -15.53125 9.5 -15.191406 10.4375 -14.515625 C 11.382812 -13.847656 11.859375 -12.882812 11.859375 -11.625 C 11.859375 -10.851562 11.695312 -10.175781 11.375 -9.59375 C 11.050781 -9.007812 10.59375 -8.539062 10 -8.1875 Z M 5.0625 -9.171875 L 6.921875 -9.171875 C 7.484375 -9.171875 7.914062 -9.34375 8.21875 -9.6875 C 8.53125 -10.03125 8.6875 -10.457031 8.6875 -10.96875 C 8.6875 -11.488281 8.507812 -11.882812 8.15625 -12.15625 C 7.8125 -12.4375 7.328125 -12.578125 6.703125 -12.578125 L 5.0625 -12.578125 Z M 7.03125 -2.84375 C 7.738281 -2.84375 8.3125 -2.988281 8.75 -3.28125 C 9.195312 -3.570312 9.421875 -4.003906 9.421875 -4.578125 C 9.421875 -5.671875 8.550781 -6.21875 6.8125 -6.21875 L 5.0625 -6.21875 L 5.0625 -2.84375 Z M 7.03125 -2.84375 "/></g></g></g><g fill="#000000" fill-opacity="1"><g transform="translate(130.216624, 206.249986)"><g><path d="M 12.59375 -15.53125 L 12.59375 -12.578125 L 5.0625 -12.578125 L 5.0625 -9.265625 L 11.734375 -9.265625 L 11.734375 -6.3125 L 5.0625 -6.3125 L 5.0625 -2.953125 L 12.890625 -2.953125 L 12.890625 0 L 2 0 L 2 -15.53125 Z M 12.59375 -15.53125 "/></g></g></g><g fill="#000000" fill-opacity="1"><g transform="translate(161.132338, 206.249986)"><g><path d="M 10.375 0 L 7.109375 -4.9375 L 5.0625 -4.9375 L 5.0625 0 L 2 0 L 2 -15.53125 L 6.703125 -15.53125 C 8.628906 -15.53125 10.125 -15.0625 11.1875 -14.125 C 12.25 -13.1875 12.78125 -11.910156 12.78125 -10.296875 C 12.78125 -9.335938 12.578125 -8.4375 12.171875 -7.59375 C 11.773438 -6.757812 11.164062 -6.101562 10.34375 -5.625 L 13.9375 0 Z M 5.0625 -7.890625 L 7.234375 -7.890625 C 8.066406 -7.890625 8.671875 -8.128906 9.046875 -8.609375 C 9.429688 -9.097656 9.625 -9.625 9.625 -10.1875 C 9.625 -10.75 9.460938 -11.285156 9.140625 -11.796875 C 8.816406 -12.316406 8.1875 -12.578125 7.25 -12.578125 L 5.0625 -12.578125 Z M 5.0625 -7.890625 "/></g></g></g><g fill="#000000" fill-opacity="1"><g transform="translate(192.469699, 206.249986)"><g><path d="M 14.59375 -1.5625 C 14.351562 -1.3125 13.925781 -1.046875 13.3125 -0.765625 C 12.707031 -0.492188 12.035156 -0.269531 11.296875 -0.09375 C 10.554688 0.0820312 9.882812 0.171875 9.28125 0.171875 C 7.632812 0.171875 6.1875 -0.144531 4.9375 -0.78125 C 3.695312 -1.425781 2.738281 -2.3125 2.0625 -3.4375 C 1.394531 -4.570312 1.0625 -5.863281 1.0625 -7.3125 C 1.0625 -9.132812 1.414062 -10.671875 2.125 -11.921875 C 2.84375 -13.179688 3.804688 -14.125 5.015625 -14.75 C 6.222656 -15.375 7.5625 -15.6875 9.03125 -15.6875 C 9.96875 -15.6875 10.851562 -15.582031 11.6875 -15.375 C 12.519531 -15.164062 13.25 -14.894531 13.875 -14.5625 L 12.890625 -11.703125 C 12.484375 -11.929688 11.921875 -12.140625 11.203125 -12.328125 C 10.492188 -12.515625 9.898438 -12.609375 9.421875 -12.609375 C 7.734375 -12.609375 6.441406 -12.1875 5.546875 -11.34375 C 4.660156 -10.5 4.21875 -9.25 4.21875 -7.59375 C 4.21875 -6.632812 4.4375 -5.800781 4.875 -5.09375 C 5.3125 -4.382812 5.921875 -3.835938 6.703125 -3.453125 C 7.484375 -3.078125 8.367188 -2.890625 9.359375 -2.890625 C 10.316406 -2.890625 11.03125 -3.023438 11.5 -3.296875 L 11.5 -5.171875 L 8.8125 -5.171875 L 8.8125 -8.125 L 14.59375 -8.125 Z M 14.59375 -1.5625 "/></g></g></g><g fill="#000000" fill-opacity="1"><g transform="translate(225.409289, 206.249986)"><g><path d="M 12.59375 -15.53125 L 12.59375 -12.578125 L 5.0625 -12.578125 L 5.0625 -9.265625 L 11.734375 -9.265625 L 11.734375 -6.3125 L 5.0625 -6.3125 L 5.0625 -2.953125 L 12.890625 -2.953125 L 12.890625 0 L 2 0 L 2 -15.53125 Z M 12.59375 -15.53125 "/></g></g></g><g fill="#000000" fill-opacity="1"><g transform="translate(256.324997, 206.249986)"><g><path d="M 10.375 0 L 7.109375 -4.9375 L 5.0625 -4.9375 L 5.0625 0 L 2 0 L 2 -15.53125 L 6.703125 -15.53125 C 8.628906 -15.53125 10.125 -15.0625 11.1875 -14.125 C 12.25 -13.1875 12.78125 -11.910156 12.78125 -10.296875 C 12.78125 -9.335938 12.578125 -8.4375 12.171875 -7.59375 C 11.773438 -6.757812 11.164062 -6.101562 10.34375 -5.625 L 13.9375 0 Z M 5.0625 -7.890625 L 7.234375 -7.890625 C 8.066406 -7.890625 8.671875 -8.128906 9.046875 -8.609375 C 9.429688 -9.097656 9.625 -9.625 9.625 -10.1875 C 9.625 -10.75 9.460938 -11.285156 9.140625 -11.796875 C 8.816406 -12.316406 8.1875 -12.578125 7.25 -12.578125 L 5.0625 -12.578125 Z M 5.0625 -7.890625 "/></g></g></g><g fill="#000000" fill-opacity="1"><g transform="translate(138.618456, 246.074877)"><g><path d="M 7.0625 -0.625 C 6.820312 -0.457031 6.492188 -0.296875 6.078125 -0.140625 C 5.660156 0.015625 5.207031 0.09375 4.71875 0.09375 C 3.882812 0.09375 3.15625 -0.0859375 2.53125 -0.453125 C 1.914062 -0.816406 1.441406 -1.304688 1.109375 -1.921875 C 0.773438 -2.535156 0.609375 -3.210938 0.609375 -3.953125 C 0.609375 -4.753906 0.773438 -5.46875 1.109375 -6.09375 C 1.441406 -6.726562 1.90625 -7.222656 2.5 -7.578125 C 3.101562 -7.941406 3.789062 -8.125 4.5625 -8.125 C 5.03125 -8.125 5.460938 -8.0625 5.859375 -7.9375 C 6.265625 -7.8125 6.617188 -7.648438 6.921875 -7.453125 L 6.421875 -6.25 C 5.828125 -6.675781 5.21875 -6.890625 4.59375 -6.890625 C 4.125 -6.890625 3.6875 -6.757812 3.28125 -6.5 C 2.875 -6.25 2.546875 -5.90625 2.296875 -5.46875 C 2.054688 -5.03125 1.9375 -4.550781 1.9375 -4.03125 C 1.9375 -3.476562 2.046875 -2.984375 2.265625 -2.546875 C 2.492188 -2.109375 2.816406 -1.765625 3.234375 -1.515625 C 3.648438 -1.265625 4.128906 -1.140625 4.671875 -1.140625 C 5.066406 -1.140625 5.421875 -1.195312 5.734375 -1.3125 C 6.046875 -1.4375 6.304688 -1.59375 6.515625 -1.78125 Z M 7.0625 -0.625 "/></g></g></g><g fill="#000000" fill-opacity="1"><g transform="translate(150.697703, 246.074877)"><g><path d="M 0.609375 -4 C 0.609375 -4.738281 0.789062 -5.421875 1.15625 -6.046875 C 1.519531 -6.679688 2.015625 -7.1875 2.640625 -7.5625 C 3.273438 -7.9375 3.960938 -8.125 4.703125 -8.125 C 5.441406 -8.125 6.125 -7.9375 6.75 -7.5625 C 7.382812 -7.1875 7.890625 -6.679688 8.265625 -6.046875 C 8.640625 -5.410156 8.828125 -4.726562 8.828125 -4 C 8.828125 -3.257812 8.640625 -2.578125 8.265625 -1.953125 C 7.890625 -1.328125 7.382812 -0.828125 6.75 -0.453125 C 6.125 -0.0859375 5.441406 0.09375 4.703125 0.09375 C 3.960938 0.09375 3.273438 -0.0859375 2.640625 -0.453125 C 2.015625 -0.816406 1.519531 -1.3125 1.15625 -1.9375 C 0.789062 -2.5625 0.609375 -3.25 0.609375 -4 Z M 1.9375 -4 C 1.9375 -3.476562 2.0625 -3 2.3125 -2.5625 C 2.5625 -2.132812 2.898438 -1.789062 3.328125 -1.53125 C 3.753906 -1.269531 4.226562 -1.140625 4.75 -1.140625 C 5.25 -1.140625 5.707031 -1.265625 6.125 -1.515625 C 6.550781 -1.773438 6.882812 -2.125 7.125 -2.5625 C 7.375 -3 7.5 -3.476562 7.5 -4 C 7.5 -4.519531 7.375 -5 7.125 -5.4375 C 6.875 -5.882812 6.535156 -6.238281 6.109375 -6.5 C 5.679688 -6.757812 5.210938 -6.890625 4.703125 -6.890625 C 4.191406 -6.890625 3.722656 -6.757812 3.296875 -6.5 C 2.878906 -6.238281 2.546875 -5.882812 2.296875 -5.4375 C 2.054688 -5 1.9375 -4.519531 1.9375 -4 Z M 1.9375 -4 "/></g></g></g><g fill="#000000" fill-opacity="1"><g transform="translate(164.54196, 246.074877)"><g><path d="M 5.234375 -1.890625 L 2.3125 -1.890625 L 1.53125 0 L 0.265625 0 L 3.8125 -8.359375 L 3.890625 -8.359375 L 7.453125 0 L 5.96875 0 Z M 4.796875 -2.984375 L 3.796875 -5.53125 L 2.75 -2.984375 Z M 4.796875 -2.984375 "/></g></g></g><g fill="#000000" fill-opacity="1"><g transform="translate(176.665337, 246.074877)"><g><path d="M 7.0625 -0.625 C 6.820312 -0.457031 6.492188 -0.296875 6.078125 -0.140625 C 5.660156 0.015625 5.207031 0.09375 4.71875 0.09375 C 3.882812 0.09375 3.15625 -0.0859375 2.53125 -0.453125 C 1.914062 -0.816406 1.441406 -1.304688 1.109375 -1.921875 C 0.773438 -2.535156 0.609375 -3.210938 0.609375 -3.953125 C 0.609375 -4.753906 0.773438 -5.46875 1.109375 -6.09375 C 1.441406 -6.726562 1.90625 -7.222656 2.5 -7.578125 C 3.101562 -7.941406 3.789062 -8.125 4.5625 -8.125 C 5.03125 -8.125 5.460938 -8.0625 5.859375 -7.9375 C 6.265625 -7.8125 6.617188 -7.648438 6.921875 -7.453125 L 6.421875 -6.25 C 5.828125 -6.675781 5.21875 -6.890625 4.59375 -6.890625 C 4.125 -6.890625 3.6875 -6.757812 3.28125 -6.5 C 2.875 -6.25 2.546875 -5.90625 2.296875 -5.46875 C 2.054688 -5.03125 1.9375 -4.550781 1.9375 -4.03125 C 1.9375 -3.476562 2.046875 -2.984375 2.265625 -2.546875 C 2.492188 -2.109375 2.816406 -1.765625 3.234375 -1.515625 C 3.648438 -1.265625 4.128906 -1.140625 4.671875 -1.140625 C 5.066406 -1.140625 5.421875 -1.195312 5.734375 -1.3125 C 6.046875 -1.4375 6.304688 -1.59375 6.515625 -1.78125 Z M 7.0625 -0.625 "/></g></g></g><g fill="#000000" fill-opacity="1"><g transform="translate(188.744583, 246.074877)"><g><path d="M 7.640625 0 L 6.34375 0 L 6.34375 -3.421875 L 2.390625 -3.421875 L 2.390625 0 L 1.109375 0 L 1.109375 -8.03125 L 2.390625 -8.03125 L 2.390625 -4.640625 L 6.34375 -4.640625 L 6.34375 -8.03125 L 7.640625 -8.03125 Z M 7.640625 0 "/></g></g></g><g fill="#000000" fill-opacity="1"><g transform="translate(201.893874, 246.074877)"><g><path d="M 2.390625 -8.03125 L 2.390625 0 L 1.109375 0 L 1.109375 -8.03125 Z M 2.390625 -8.03125 "/></g></g></g><g fill="#000000" fill-opacity="1"><g transform="translate(209.803296, 246.074877)"><g><path d="M 8.203125 -8.03125 L 8.203125 0.28125 L 8.15625 0.28125 L 2.375 -5.328125 L 2.40625 0 L 1.109375 0 L 1.109375 -8.3125 L 1.171875 -8.3125 L 6.9375 -2.625 L 6.921875 -8.03125 Z M 8.203125 -8.03125 "/></g></g></g><g fill="#000000" fill-opacity="1"><g transform="translate(223.526208, 246.074877)"><g><path d="M 7.484375 -0.734375 C 7.265625 -0.535156 6.878906 -0.347656 6.328125 -0.171875 C 5.785156 0.00390625 5.285156 0.09375 4.828125 0.09375 C 3.984375 0.09375 3.238281 -0.0703125 2.59375 -0.40625 C 1.957031 -0.75 1.46875 -1.21875 1.125 -1.8125 C 0.78125 -2.40625 0.609375 -3.078125 0.609375 -3.828125 C 0.609375 -4.734375 0.789062 -5.507812 1.15625 -6.15625 C 1.53125 -6.800781 2.03125 -7.289062 2.65625 -7.625 C 3.289062 -7.957031 3.984375 -8.125 4.734375 -8.125 C 5.191406 -8.125 5.628906 -8.066406 6.046875 -7.953125 C 6.460938 -7.847656 6.828125 -7.707031 7.140625 -7.53125 L 6.734375 -6.34375 C 6.503906 -6.476562 6.207031 -6.59375 5.84375 -6.6875 C 5.488281 -6.78125 5.171875 -6.828125 4.890625 -6.828125 C 3.972656 -6.828125 3.25 -6.570312 2.71875 -6.0625 C 2.195312 -5.5625 1.9375 -4.851562 1.9375 -3.9375 C 1.9375 -3.394531 2.054688 -2.914062 2.296875 -2.5 C 2.546875 -2.082031 2.890625 -1.757812 3.328125 -1.53125 C 3.773438 -1.300781 4.285156 -1.1875 4.859375 -1.1875 C 5.117188 -1.1875 5.363281 -1.207031 5.59375 -1.25 C 5.832031 -1.300781 6.035156 -1.375 6.203125 -1.46875 L 6.203125 -2.796875 L 4.6875 -2.796875 L 4.6875 -4.03125 L 7.484375 -4.03125 Z M 7.484375 -0.734375 "/></g></g></g></svg>