<svg xmlns="http://www.w3.org/2000/svg" xmlns:xlink="http://www.w3.org/1999/xlink" width="3515" zoomAndPan="magnify" viewBox="0 0 2635.92 566.999966" height="756" preserveAspectRatio="xMidYMid meet" version="1.0"><defs><g/><clipPath id="121aaa4f3c"><path d="M 2344.191406 206.972656 L 2433.886719 206.972656 L 2433.886719 296.664062 L 2344.191406 296.664062 Z M 2344.191406 206.972656 " clip-rule="nonzero"/></clipPath><clipPath id="fb8a5689c4"><path d="M 2389.039062 206.972656 C 2364.269531 206.972656 2344.191406 227.050781 2344.191406 251.816406 C 2344.191406 276.585938 2364.269531 296.664062 2389.039062 296.664062 C 2413.808594 296.664062 2433.886719 276.585938 2433.886719 251.816406 C 2433.886719 227.050781 2413.808594 206.972656 2389.039062 206.972656 Z M 2389.039062 206.972656 " clip-rule="nonzero"/></clipPath></defs><path stroke-linecap="butt" transform="matrix(0.749977, 0, 0, 0.749977, 400.538863, 350.868441)" fill="none" stroke-linejoin="miter" d="M 0.000266032 5.998512 L 2450.600783 5.998512 " stroke="#1d1d1f" stroke-width="12" stroke-opacity="1" stroke-miterlimit="4"/><g clip-path="url(#121aaa4f3c)"><g clip-path="url(#fb8a5689c4)"><path fill="#4338ca" d="M 2344.191406 206.972656 L 2433.886719 206.972656 L 2433.886719 296.664062 L 2344.191406 296.664062 Z M 2344.191406 206.972656 " fill-opacity="1" fill-rule="nonzero"/></g></g><g fill="#1d1d1f" fill-opacity="1"><g transform="translate(295.478883, 297.367882)"><g><path d="M 21.390625 -244.015625 L 79.234375 -244.015625 L 106.046875 -102.125 L 134.953125 -244.015625 L 190.6875 -244.015625 L 194.90625 0 L 156.65625 0 L 152.125 -162.375 L 123.8125 0 L 89.765625 0 L 59.640625 -163.578125 L 56.03125 0 L 17.171875 0 Z M 21.390625 -244.015625 "/></g></g></g><g fill="#1d1d1f" fill-opacity="1"><g transform="translate(507.559157, 297.367882)"><g><path d="M 52.421875 -244.015625 L 113.875 -244.015625 L 159.359375 0 L 109.65625 0 L 101.515625 -51.515625 L 65.671875 -51.515625 L 57.234375 0 L 6.328125 0 Z M 96.40625 -83.75 L 83.453125 -178.9375 L 70.5 -83.75 Z M 96.40625 -83.75 "/></g></g></g><g fill="#1d1d1f" fill-opacity="1"><g transform="translate(673.548162, 297.367882)"><g><path d="M 18.078125 -244.015625 L 85.25 -244.015625 C 111.957031 -244.015625 132.140625 -239.289062 145.796875 -229.84375 C 159.460938 -220.40625 166.296875 -203.640625 166.296875 -179.546875 C 166.296875 -163.273438 164.1875 -150.316406 159.96875 -140.671875 C 155.75 -131.035156 147.914062 -123.507812 136.46875 -118.09375 L 169.90625 0 L 114.171875 0 L 87.359375 -109.359375 L 72 -109.359375 L 72 0 L 18.078125 0 Z M 87.0625 -140.375 C 97.90625 -140.375 105.484375 -143.234375 109.796875 -148.953125 C 114.117188 -154.679688 116.28125 -163.269531 116.28125 -174.71875 C 116.28125 -185.769531 114.269531 -194.054688 110.25 -199.578125 C 106.238281 -205.097656 99.3125 -207.859375 89.46875 -207.859375 L 72 -207.859375 L 72 -140.375 Z M 87.0625 -140.375 "/></g></g></g><g fill="#1d1d1f" fill-opacity="1"><g transform="translate(854.298364, 297.367882)"><g><path d="M 18.375 -244.015625 L 72.296875 -244.015625 L 72.296875 0 L 18.375 0 Z M 18.375 -244.015625 "/></g></g></g><g fill="#1d1d1f" fill-opacity="1"><g transform="translate(944.974722, 297.367882)"><g><path d="M 18.078125 -244.015625 L 56.03125 -244.015625 L 106.046875 -126.53125 L 106.046875 -244.015625 L 150.625 -244.015625 L 150.625 0 L 114.171875 0 L 64.171875 -126.53125 L 64.171875 0 L 18.078125 0 Z M 18.078125 -244.015625 "/></g></g></g><g fill="#1d1d1f" fill-opacity="1"><g transform="translate(1113.976198, 297.367882)"><g><path d="M 52.421875 -244.015625 L 113.875 -244.015625 L 159.359375 0 L 109.65625 0 L 101.515625 -51.515625 L 65.671875 -51.515625 L 57.234375 0 L 6.328125 0 Z M 96.40625 -83.75 L 83.453125 -178.9375 L 70.5 -83.75 Z M 96.40625 -83.75 "/></g></g></g><g fill="#1d1d1f" fill-opacity="1"><g transform="translate(1279.965181, 297.367882)"><g/></g></g><g fill="#1d1d1f" fill-opacity="1"><g transform="translate(1357.08523, 297.367882)"><g><path d="M 18.078125 -244.015625 L 81.640625 -244.015625 C 97.503906 -244.015625 111.007812 -242.359375 122.15625 -239.046875 C 133.300781 -235.734375 142.285156 -229.351562 149.109375 -219.90625 C 155.941406 -210.46875 159.359375 -197.210938 159.359375 -180.140625 C 159.359375 -165.679688 156.242188 -154.4375 150.015625 -146.40625 C 143.796875 -138.375 134.960938 -133.253906 123.515625 -131.046875 C 137.566406 -129.234375 148.304688 -123.304688 155.734375 -113.265625 C 163.171875 -103.222656 166.890625 -89.566406 166.890625 -72.296875 C 166.890625 -24.097656 142.289062 0 93.09375 0 L 18.078125 0 Z M 82.546875 -146.40625 C 93.992188 -146.40625 101.773438 -149.015625 105.890625 -154.234375 C 110.003906 -159.460938 112.0625 -167.597656 112.0625 -178.640625 C 112.0625 -188.273438 109.453125 -195.550781 104.234375 -200.46875 C 99.015625 -205.394531 91.382812 -207.859375 81.34375 -207.859375 L 72 -207.859375 L 72 -146.40625 Z M 83.453125 -37.65625 C 94.898438 -37.65625 102.984375 -40.515625 107.703125 -46.234375 C 112.421875 -51.960938 114.78125 -60.953125 114.78125 -73.203125 C 114.78125 -87.054688 112.421875 -96.796875 107.703125 -102.421875 C 102.984375 -108.046875 94.796875 -110.859375 83.140625 -110.859375 L 72 -110.859375 L 72 -37.65625 Z M 83.453125 -37.65625 "/></g></g></g><g fill="#1d1d1f" fill-opacity="1"><g transform="translate(1534.220511, 297.367882)"><g><path d="M 18.078125 -244.015625 L 127.734375 -244.015625 L 127.734375 -207.265625 L 72 -207.265625 L 72 -146.703125 L 114.46875 -146.703125 L 114.46875 -109.359375 L 72 -109.359375 L 72 -36.453125 L 128.328125 -36.453125 L 128.328125 0 L 18.078125 0 Z M 18.078125 -244.015625 "/></g></g></g><g fill="#1d1d1f" fill-opacity="1"><g transform="translate(1668.879444, 297.367882)"><g><path d="M 18.078125 -244.015625 L 85.25 -244.015625 C 111.957031 -244.015625 132.140625 -239.289062 145.796875 -229.84375 C 159.460938 -220.40625 166.296875 -203.640625 166.296875 -179.546875 C 166.296875 -163.273438 164.1875 -150.316406 159.96875 -140.671875 C 155.75 -131.035156 147.914062 -123.507812 136.46875 -118.09375 L 169.90625 0 L 114.171875 0 L 87.359375 -109.359375 L 72 -109.359375 L 72 0 L 18.078125 0 Z M 87.0625 -140.375 C 97.90625 -140.375 105.484375 -143.234375 109.796875 -148.953125 C 114.117188 -154.679688 116.28125 -163.269531 116.28125 -174.71875 C 116.28125 -185.769531 114.269531 -194.054688 110.25 -199.578125 C 106.238281 -205.097656 99.3125 -207.859375 89.46875 -207.859375 L 72 -207.859375 L 72 -140.375 Z M 87.0625 -140.375 "/></g></g></g><g fill="#1d1d1f" fill-opacity="1"><g transform="translate(1849.629758, 297.367882)"><g><path d="M 81.640625 3.609375 C 57.535156 3.609375 40.363281 -3.71875 30.125 -18.375 C 19.882812 -33.039062 14.765625 -53.828125 14.765625 -80.734375 L 14.765625 -162.671875 C 14.765625 -190.191406 20.335938 -211.179688 31.484375 -225.640625 C 42.628906 -240.097656 61.457031 -247.328125 87.96875 -247.328125 C 113.46875 -247.328125 131.738281 -241.097656 142.78125 -228.640625 C 153.832031 -216.191406 159.359375 -198.625 159.359375 -175.9375 L 159.359375 -160.265625 L 106.640625 -160.265625 L 106.640625 -180.140625 C 106.640625 -189.785156 105.535156 -197.066406 103.328125 -201.984375 C 101.117188 -206.910156 96.195312 -209.375 88.5625 -209.375 C 80.726562 -209.375 75.65625 -206.660156 73.34375 -201.234375 C 71.039062 -195.804688 69.890625 -188.273438 69.890625 -178.640625 L 69.890625 -65.671875 C 69.890625 -56.035156 71.34375 -48.453125 74.25 -42.921875 C 77.164062 -37.398438 82.441406 -34.640625 90.078125 -34.640625 C 104.128906 -34.640625 111.15625 -45.1875 111.15625 -66.28125 L 111.15625 -94.890625 L 89.171875 -94.890625 L 89.171875 -126.53125 L 159.65625 -126.53125 L 159.65625 0 L 124.109375 0 L 121.109375 -20.1875 C 113.472656 -4.320312 100.316406 3.609375 81.640625 3.609375 Z M 81.640625 3.609375 "/></g></g></g><g fill="#1d1d1f" fill-opacity="1"><g transform="translate(2024.957474, 297.367882)"><g><path d="M 18.078125 -244.015625 L 127.734375 -244.015625 L 127.734375 -207.265625 L 72 -207.265625 L 72 -146.703125 L 114.46875 -146.703125 L 114.46875 -109.359375 L 72 -109.359375 L 72 -36.453125 L 128.328125 -36.453125 L 128.328125 0 L 18.078125 0 Z M 18.078125 -244.015625 "/></g></g></g><g fill="#1d1d1f" fill-opacity="1"><g transform="translate(2159.616497, 297.367882)"><g><path d="M 18.078125 -244.015625 L 85.25 -244.015625 C 111.957031 -244.015625 132.140625 -239.289062 145.796875 -229.84375 C 159.460938 -220.40625 166.296875 -203.640625 166.296875 -179.546875 C 166.296875 -163.273438 164.1875 -150.316406 159.96875 -140.671875 C 155.75 -131.035156 147.914062 -123.507812 136.46875 -118.09375 L 169.90625 0 L 114.171875 0 L 87.359375 -109.359375 L 72 -109.359375 L 72 0 L 18.078125 0 Z M 87.0625 -140.375 C 97.90625 -140.375 105.484375 -143.234375 109.796875 -148.953125 C 114.117188 -154.679688 116.28125 -163.269531 116.28125 -174.71875 C 116.28125 -185.769531 114.269531 -194.054688 110.25 -199.578125 C 106.238281 -205.097656 99.3125 -207.859375 89.46875 -207.859375 L 72 -207.859375 L 72 -140.375 Z M 87.0625 -140.375 "/></g></g></g><g fill="#1d1d1f" fill-opacity="1"><g transform="translate(972.278297, 482.08668)"><g><path d="M 40.34375 0.9375 C 35.351562 0.9375 30.691406 0.00390625 26.359375 -1.859375 C 22.035156 -3.734375 18.21875 -6.328125 14.90625 -9.640625 C 11.59375 -12.960938 9 -16.785156 7.125 -21.109375 C 5.257812 -25.429688 4.328125 -30.09375 4.328125 -35.09375 C 4.328125 -40.082031 5.257812 -44.738281 7.125 -49.0625 C 9 -53.382812 11.59375 -57.203125 14.90625 -60.515625 C 18.21875 -63.835938 22.035156 -66.429688 26.359375 -68.296875 C 30.691406 -70.171875 35.351562 -71.109375 40.34375 -71.109375 C 47.28125 -71.109375 53.59375 -69.332031 59.28125 -65.78125 C 64.976562 -62.238281 69.3125 -57.582031 72.28125 -51.8125 L 58.9375 -44.90625 C 57.226562 -48.257812 54.734375 -50.945312 51.453125 -52.96875 C 48.179688 -55 44.476562 -56.015625 40.34375 -56.015625 C 36.445312 -56.015625 32.921875 -55.097656 29.765625 -53.265625 C 26.609375 -51.441406 24.113281 -48.945312 22.28125 -45.78125 C 20.445312 -42.625 19.53125 -39.0625 19.53125 -35.09375 C 19.53125 -31.113281 20.445312 -27.539062 22.28125 -24.375 C 24.113281 -21.21875 26.609375 -18.722656 29.765625 -16.890625 C 32.921875 -15.066406 36.445312 -14.15625 40.34375 -14.15625 C 44.476562 -14.15625 48.179688 -15.164062 51.453125 -17.1875 C 54.734375 -19.21875 57.226562 -21.910156 58.9375 -25.265625 L 72.28125 -18.359375 C 69.3125 -12.671875 64.976562 -8.03125 59.28125 -4.4375 C 53.59375 -0.851562 47.28125 0.9375 40.34375 0.9375 Z M 40.34375 0.9375 "/></g></g></g><g fill="#1d1d1f" fill-opacity="1"><g transform="translate(1066.306318, 482.08668)"><g><path d="M 40.34375 0.9375 C 35.351562 0.9375 30.691406 0.00390625 26.359375 -1.859375 C 22.035156 -3.734375 18.21875 -6.328125 14.90625 -9.640625 C 11.59375 -12.960938 9 -16.785156 7.125 -21.109375 C 5.257812 -25.429688 4.328125 -30.09375 4.328125 -35.09375 C 4.328125 -40.082031 5.257812 -44.738281 7.125 -49.0625 C 9 -53.382812 11.59375 -57.203125 14.90625 -60.515625 C 18.21875 -63.835938 22.035156 -66.429688 26.359375 -68.296875 C 30.691406 -70.171875 35.351562 -71.109375 40.34375 -71.109375 C 45.332031 -71.109375 50.007812 -70.171875 54.375 -68.296875 C 58.75 -66.429688 62.570312 -63.835938 65.84375 -60.515625 C 69.113281 -57.203125 71.6875 -53.382812 73.5625 -49.0625 C 75.4375 -44.738281 76.375 -40.082031 76.375 -35.09375 C 76.375 -30.09375 75.4375 -25.429688 73.5625 -21.109375 C 71.6875 -16.785156 69.113281 -12.960938 65.84375 -9.640625 C 62.570312 -6.328125 58.75 -3.734375 54.375 -1.859375 C 50.007812 0.00390625 45.332031 0.9375 40.34375 0.9375 Z M 40.34375 -14.15625 C 44.320312 -14.15625 47.890625 -15.066406 51.046875 -16.890625 C 54.203125 -18.722656 56.695312 -21.21875 58.53125 -24.375 C 60.363281 -27.539062 61.28125 -31.113281 61.28125 -35.09375 C 61.28125 -39.0625 60.363281 -42.625 58.53125 -45.78125 C 56.695312 -48.945312 54.203125 -51.441406 51.046875 -53.265625 C 47.890625 -55.097656 44.320312 -56.015625 40.34375 -56.015625 C 36.445312 -56.015625 32.921875 -55.097656 29.765625 -53.265625 C 26.609375 -51.441406 24.113281 -48.945312 22.28125 -45.78125 C 20.445312 -42.625 19.53125 -39.0625 19.53125 -35.09375 C 19.53125 -31.113281 20.445312 -27.539062 22.28125 -24.375 C 24.113281 -21.21875 26.609375 -18.722656 29.765625 -16.890625 C 32.921875 -15.066406 36.445312 -14.15625 40.34375 -14.15625 Z M 40.34375 -14.15625 "/></g></g></g><g fill="#1d1d1f" fill-opacity="1"><g transform="translate(1165.830957, 482.08668)"><g><path d="M 49.828125 0 L 45.5 -13.21875 L 19.296875 -13.21875 L 14.96875 0 L -1.515625 0 L 23.734375 -70.171875 L 41.046875 -70.171875 L 66.3125 0 Z M 23.390625 -26.078125 L 41.40625 -26.078125 L 32.390625 -53.921875 Z M 23.390625 -26.078125 "/></g></g></g><g fill="#1d1d1f" fill-opacity="1"><g transform="translate(1249.333531, 482.08668)"><g><path d="M 40.34375 0.9375 C 35.351562 0.9375 30.691406 0.00390625 26.359375 -1.859375 C 22.035156 -3.734375 18.21875 -6.328125 14.90625 -9.640625 C 11.59375 -12.960938 9 -16.785156 7.125 -21.109375 C 5.257812 -25.429688 4.328125 -30.09375 4.328125 -35.09375 C 4.328125 -40.082031 5.257812 -44.738281 7.125 -49.0625 C 9 -53.382812 11.59375 -57.203125 14.90625 -60.515625 C 18.21875 -63.835938 22.035156 -66.429688 26.359375 -68.296875 C 30.691406 -70.171875 35.351562 -71.109375 40.34375 -71.109375 C 47.28125 -71.109375 53.59375 -69.332031 59.28125 -65.78125 C 64.976562 -62.238281 69.3125 -57.582031 72.28125 -51.8125 L 58.9375 -44.90625 C 57.226562 -48.257812 54.734375 -50.945312 51.453125 -52.96875 C 48.179688 -55 44.476562 -56.015625 40.34375 -56.015625 C 36.445312 -56.015625 32.921875 -55.097656 29.765625 -53.265625 C 26.609375 -51.441406 24.113281 -48.945312 22.28125 -45.78125 C 20.445312 -42.625 19.53125 -39.0625 19.53125 -35.09375 C 19.53125 -31.113281 20.445312 -27.539062 22.28125 -24.375 C 24.113281 -21.21875 26.609375 -18.722656 29.765625 -16.890625 C 32.921875 -15.066406 36.445312 -14.15625 40.34375 -14.15625 C 44.476562 -14.15625 48.179688 -15.164062 51.453125 -17.1875 C 54.734375 -19.21875 57.226562 -21.910156 58.9375 -25.265625 L 72.28125 -18.359375 C 69.3125 -12.671875 64.976562 -8.03125 59.28125 -4.4375 C 53.59375 -0.851562 47.28125 0.9375 40.34375 0.9375 Z M 40.34375 0.9375 "/></g></g></g><g fill="#1d1d1f" fill-opacity="1"><g transform="translate(1343.361557, 482.08668)"><g><path d="M 50.875 -70.171875 L 66.203125 -70.171875 L 66.203125 0 L 50.875 0 L 50.875 -28.296875 L 22.34375 -28.296875 L 22.34375 0 L 6.90625 0 L 6.90625 -70.171875 L 22.34375 -70.171875 L 22.34375 -41.984375 L 50.875 -41.984375 Z M 50.875 -70.171875 "/></g></g></g><g fill="#1d1d1f" fill-opacity="1"><g transform="translate(1435.284484, 482.08668)"><g><path d="M 7.484375 0 L 7.484375 -70.171875 L 22.921875 -70.171875 L 22.921875 0 Z M 7.484375 0 "/></g></g></g><g fill="#1d1d1f" fill-opacity="1"><g transform="translate(1484.286962, 482.08668)"><g><path d="M 57.3125 -70.171875 L 72.625 -70.171875 L 72.625 0 L 56.71875 0 L 22.34375 -46.546875 L 22.34375 0 L 6.90625 0 L 6.90625 -70.171875 L 22.8125 -70.171875 L 57.3125 -23.734375 Z M 57.3125 -70.171875 "/></g></g></g><g fill="#1d1d1f" fill-opacity="1"><g transform="translate(1582.642096, 482.08668)"><g><path d="M 40.34375 -38.484375 L 76.484375 -38.484375 L 76.484375 -35.09375 C 76.484375 -30.09375 75.546875 -25.429688 73.671875 -21.109375 C 71.804688 -16.785156 69.21875 -12.960938 65.90625 -9.640625 C 62.59375 -6.328125 58.769531 -3.734375 54.4375 -1.859375 C 50.113281 0.00390625 45.457031 0.9375 40.46875 0.9375 C 35.476562 0.9375 30.796875 0.00390625 26.421875 -1.859375 C 22.054688 -3.734375 18.238281 -6.328125 14.96875 -9.640625 C 11.695312 -12.960938 9.125 -16.785156 7.25 -21.109375 C 5.375 -25.429688 4.4375 -30.09375 4.4375 -35.09375 C 4.4375 -40.082031 5.375 -44.738281 7.25 -49.0625 C 9.125 -53.382812 11.695312 -57.203125 14.96875 -60.515625 C 18.238281 -63.835938 22.054688 -66.429688 26.421875 -68.296875 C 30.796875 -70.171875 35.476562 -71.109375 40.46875 -71.109375 C 47.40625 -71.109375 53.695312 -69.332031 59.34375 -65.78125 C 65 -62.238281 69.347656 -57.582031 72.390625 -51.8125 L 59.0625 -44.90625 C 57.34375 -48.257812 54.847656 -50.945312 51.578125 -52.96875 C 48.304688 -55 44.601562 -56.015625 40.46875 -56.015625 C 36.570312 -56.015625 33.023438 -55.097656 29.828125 -53.265625 C 26.628906 -51.441406 24.113281 -48.945312 22.28125 -45.78125 C 20.445312 -42.625 19.53125 -39.0625 19.53125 -35.09375 C 19.53125 -31.113281 20.445312 -27.539062 22.28125 -24.375 C 24.113281 -21.21875 26.628906 -18.722656 29.828125 -16.890625 C 33.023438 -15.066406 36.570312 -14.15625 40.46875 -14.15625 C 44.832031 -14.15625 48.707031 -15.285156 52.09375 -17.546875 C 55.488281 -19.804688 58.003906 -22.769531 59.640625 -26.4375 L 40.34375 -26.4375 Z M 40.34375 -38.484375 "/></g></g></g></svg>