<svg xmlns="http://www.w3.org/2000/svg" xmlns:xlink="http://www.w3.org/1999/xlink" width="3515" zoomAndPan="magnify" viewBox="0 0 2635.92 283.499996" height="378" preserveAspectRatio="xMidYMid meet" version="1.0"><defs><g/><clipPath id="a338032105"><path d="M 2520.890625 156.460938 L 2619.09375 156.460938 L 2619.09375 254.667969 L 2520.890625 254.667969 Z M 2520.890625 156.460938 " clip-rule="nonzero"/></clipPath><clipPath id="7f1bfcf002"><path d="M 2569.992188 156.460938 C 2542.875 156.460938 2520.890625 178.445312 2520.890625 205.566406 C 2520.890625 232.683594 2542.875 254.667969 2569.992188 254.667969 C 2597.109375 254.667969 2619.09375 232.683594 2619.09375 205.566406 C 2619.09375 178.445312 2597.109375 156.460938 2569.992188 156.460938 Z M 2569.992188 156.460938 " clip-rule="nonzero"/></clipPath></defs><g fill="#1d1d1f" fill-opacity="1"><g transform="translate(40.028941, 249.627641)"><g><path d="M 209.46875 -215.9375 L 260.5625 -215.9375 L 260.5625 0 L 213.0625 0 L 213.0625 -128.484375 L 154.390625 0 L 127.046875 0 L 68.734375 -128.84375 L 68.734375 0 L 21.234375 0 L 21.234375 -215.9375 L 72.703125 -215.9375 L 140.71875 -66.578125 Z M 209.46875 -215.9375 "/></g></g></g><g fill="#1d1d1f" fill-opacity="1"><g transform="translate(321.837377, 249.627641)"><g><path d="M 153.3125 0 L 140 -40.671875 L 59.390625 -40.671875 L 46.0625 0 L -4.671875 0 L 73.0625 -215.9375 L 126.328125 -215.9375 L 204.0625 0 Z M 71.984375 -80.265625 L 127.40625 -80.265625 L 99.6875 -165.921875 Z M 71.984375 -80.265625 "/></g></g></g><g fill="#1d1d1f" fill-opacity="1"><g transform="translate(521.226767, 249.627641)"><g><path d="M 133.890625 -88.890625 L 194.34375 0 L 141.078125 0 L 87.8125 -83.5 L 68.734375 -83.5 L 68.734375 0 L 21.234375 0 L 21.234375 -215.9375 L 113.015625 -215.9375 C 125.484375 -215.9375 136.515625 -213 146.109375 -207.125 C 155.710938 -201.25 163.332031 -193.269531 168.96875 -183.1875 C 174.613281 -173.113281 177.4375 -161.957031 177.4375 -149.71875 C 177.4375 -135.082031 173.351562 -122.242188 165.1875 -111.203125 C 157.03125 -100.171875 146.597656 -92.734375 133.890625 -88.890625 Z M 105.8125 -122.734375 C 113.488281 -122.734375 119.785156 -125.128906 124.703125 -129.921875 C 129.617188 -134.722656 132.078125 -140.84375 132.078125 -148.28125 C 132.078125 -155.71875 129.617188 -161.832031 124.703125 -166.625 C 119.785156 -171.425781 113.488281 -173.828125 105.8125 -173.828125 L 68.734375 -173.828125 L 68.734375 -122.734375 Z M 105.8125 -122.734375 "/></g></g></g><g fill="#1d1d1f" fill-opacity="1"><g transform="translate(713.777875, 249.627641)"><g><path d="M 23.03125 0 L 23.03125 -215.9375 L 70.546875 -215.9375 L 70.546875 0 Z M 23.03125 0 "/></g></g></g><g fill="#1d1d1f" fill-opacity="1"><g transform="translate(806.994189, 249.627641)"><g><path d="M 176.359375 -215.9375 L 223.5 -215.9375 L 223.5 0 L 174.546875 0 L 68.734375 -143.234375 L 68.734375 0 L 21.234375 0 L 21.234375 -215.9375 L 70.1875 -215.9375 L 176.359375 -73.0625 Z M 176.359375 -215.9375 "/></g></g></g><g fill="#1d1d1f" fill-opacity="1"><g transform="translate(1052.091961, 249.627641)"><g><path d="M 153.3125 0 L 140 -40.671875 L 59.390625 -40.671875 L 46.0625 0 L -4.671875 0 L 73.0625 -215.9375 L 126.328125 -215.9375 L 204.0625 0 Z M 71.984375 -80.265625 L 127.40625 -80.265625 L 99.6875 -165.921875 Z M 71.984375 -80.265625 "/></g></g></g><g fill="#1d1d1f" fill-opacity="1"><g transform="translate(1251.481351, 249.627641)"><g/></g></g><g fill="#1d1d1f" fill-opacity="1"><g transform="translate(1337.85943, 249.627641)"><g><path d="M 151.15625 -109.40625 C 161.238281 -105.570312 169.394531 -99.515625 175.625 -91.234375 C 181.863281 -82.953125 184.984375 -72.21875 184.984375 -59.03125 C 184.984375 -46.3125 182.164062 -35.570312 176.53125 -26.8125 C 170.894531 -18.050781 163.21875 -11.390625 153.5 -6.828125 C 143.78125 -2.273438 132.921875 0 120.921875 0 L 21.234375 0 L 21.234375 -215.9375 L 112.65625 -215.9375 C 124.882812 -215.9375 135.914062 -213.597656 145.75 -208.921875 C 155.59375 -204.242188 163.394531 -197.40625 169.15625 -188.40625 C 174.914062 -179.40625 177.796875 -168.550781 177.796875 -155.84375 C 177.796875 -144.5625 175.394531 -135.082031 170.59375 -127.40625 C 165.789062 -119.726562 159.3125 -113.726562 151.15625 -109.40625 Z M 130.28125 -150.796875 C 130.28125 -157.273438 128 -162.734375 123.4375 -167.171875 C 118.882812 -171.609375 113.367188 -173.828125 106.890625 -173.828125 L 68.734375 -173.828125 L 68.734375 -127.40625 L 106.890625 -127.40625 C 113.367188 -127.40625 118.882812 -129.742188 123.4375 -134.421875 C 128 -139.097656 130.28125 -144.554688 130.28125 -150.796875 Z M 114.09375 -42.109375 C 120.8125 -42.109375 126.390625 -44.328125 130.828125 -48.765625 C 135.265625 -53.203125 137.484375 -58.660156 137.484375 -65.140625 C 137.484375 -71.378906 135.265625 -76.835938 130.828125 -81.515625 C 126.390625 -86.191406 120.8125 -88.53125 114.09375 -88.53125 L 68.734375 -88.53125 L 68.734375 -42.109375 Z M 114.09375 -42.109375 "/></g></g></g><g fill="#1d1d1f" fill-opacity="1"><g transform="translate(1533.289832, 249.627641)"><g><path d="M 152.953125 -174.1875 L 70.546875 -174.1875 L 70.546875 -128.84375 L 141.078125 -128.84375 L 141.078125 -87.09375 L 70.546875 -87.09375 L 70.546875 -41.75 L 152.953125 -41.75 L 152.953125 0 L 23.03125 0 L 23.03125 -215.9375 L 152.953125 -215.9375 Z M 152.953125 -174.1875 "/></g></g></g><g fill="#1d1d1f" fill-opacity="1"><g transform="translate(1701.00721, 249.627641)"><g><path d="M 133.890625 -88.890625 L 194.34375 0 L 141.078125 0 L 87.8125 -83.5 L 68.734375 -83.5 L 68.734375 0 L 21.234375 0 L 21.234375 -215.9375 L 113.015625 -215.9375 C 125.484375 -215.9375 136.515625 -213 146.109375 -207.125 C 155.710938 -201.25 163.332031 -193.269531 168.96875 -183.1875 C 174.613281 -173.113281 177.4375 -161.957031 177.4375 -149.71875 C 177.4375 -135.082031 173.351562 -122.242188 165.1875 -111.203125 C 157.03125 -100.171875 146.597656 -92.734375 133.890625 -88.890625 Z M 105.8125 -122.734375 C 113.488281 -122.734375 119.785156 -125.128906 124.703125 -129.921875 C 129.617188 -134.722656 132.078125 -140.84375 132.078125 -148.28125 C 132.078125 -155.71875 129.617188 -161.832031 124.703125 -166.625 C 119.785156 -171.425781 113.488281 -173.828125 105.8125 -173.828125 L 68.734375 -173.828125 L 68.734375 -122.734375 Z M 105.8125 -122.734375 "/></g></g></g><g fill="#1d1d1f" fill-opacity="1"><g transform="translate(1893.558408, 249.627641)"><g><path d="M 124.171875 -118.40625 L 235.375 -118.40625 L 235.375 -107.96875 C 235.375 -92.613281 232.492188 -78.273438 226.734375 -64.953125 C 220.972656 -51.640625 212.992188 -39.882812 202.796875 -29.6875 C 192.609375 -19.488281 180.851562 -11.507812 167.53125 -5.75 C 154.21875 0 139.882812 2.875 124.53125 2.875 C 109.175781 2.875 94.78125 0 81.34375 -5.75 C 67.90625 -11.507812 56.144531 -19.488281 46.0625 -29.6875 C 35.988281 -39.882812 28.070312 -51.640625 22.3125 -64.953125 C 16.550781 -78.273438 13.671875 -92.613281 13.671875 -107.96875 C 13.671875 -123.320312 16.550781 -137.65625 22.3125 -150.96875 C 28.070312 -164.289062 35.988281 -176.050781 46.0625 -186.25 C 56.144531 -196.445312 67.90625 -204.425781 81.34375 -210.1875 C 94.78125 -215.945312 109.175781 -218.828125 124.53125 -218.828125 C 145.882812 -218.828125 165.257812 -213.363281 182.65625 -202.4375 C 200.050781 -191.519531 213.425781 -177.1875 222.78125 -159.4375 L 181.75 -138.203125 C 176.46875 -148.515625 168.785156 -156.789062 158.703125 -163.03125 C 148.628906 -169.269531 137.238281 -172.390625 124.53125 -172.390625 C 112.53125 -172.390625 101.609375 -169.570312 91.765625 -163.9375 C 81.929688 -158.300781 74.195312 -150.625 68.5625 -140.90625 C 62.925781 -131.1875 60.109375 -120.207031 60.109375 -107.96875 C 60.109375 -95.726562 62.925781 -84.75 68.5625 -75.03125 C 74.195312 -65.320312 81.929688 -57.644531 91.765625 -52 C 101.609375 -46.363281 112.53125 -43.546875 124.53125 -43.546875 C 137.96875 -43.546875 149.90625 -47.023438 160.34375 -53.984375 C 170.78125 -60.941406 178.515625 -70.0625 183.546875 -81.34375 L 124.171875 -81.34375 Z M 124.171875 -118.40625 "/></g></g></g><g fill="#1d1d1f" fill-opacity="1"><g transform="translate(2142.615176, 249.627641)"><g><path d="M 152.953125 -174.1875 L 70.546875 -174.1875 L 70.546875 -128.84375 L 141.078125 -128.84375 L 141.078125 -87.09375 L 70.546875 -87.09375 L 70.546875 -41.75 L 152.953125 -41.75 L 152.953125 0 L 23.03125 0 L 23.03125 -215.9375 L 152.953125 -215.9375 Z M 152.953125 -174.1875 "/></g></g></g><g fill="#1d1d1f" fill-opacity="1"><g transform="translate(2310.332554, 249.627641)"><g><path d="M 133.890625 -88.890625 L 194.34375 0 L 141.078125 0 L 87.8125 -83.5 L 68.734375 -83.5 L 68.734375 0 L 21.234375 0 L 21.234375 -215.9375 L 113.015625 -215.9375 C 125.484375 -215.9375 136.515625 -213 146.109375 -207.125 C 155.710938 -201.25 163.332031 -193.269531 168.96875 -183.1875 C 174.613281 -173.113281 177.4375 -161.957031 177.4375 -149.71875 C 177.4375 -135.082031 173.351562 -122.242188 165.1875 -111.203125 C 157.03125 -100.171875 146.597656 -92.734375 133.890625 -88.890625 Z M 105.8125 -122.734375 C 113.488281 -122.734375 119.785156 -125.128906 124.703125 -129.921875 C 129.617188 -134.722656 132.078125 -140.84375 132.078125 -148.28125 C 132.078125 -155.71875 129.617188 -161.832031 124.703125 -166.625 C 119.785156 -171.425781 113.488281 -173.828125 105.8125 -173.828125 L 68.734375 -173.828125 L 68.734375 -122.734375 Z M 105.8125 -122.734375 "/></g></g></g><g clip-path="url(#a338032105)"><g clip-path="url(#7f1bfcf002)"><path fill="#4338ca" d="M 2520.890625 156.460938 L 2619.09375 156.460938 L 2619.09375 254.667969 L 2520.890625 254.667969 Z M 2520.890625 156.460938 " fill-opacity="1" fill-rule="nonzero"/></g></g></svg>